<svg width="1496" height="1792" viewBox="0 0 1496 1792" fill="none" xmlns="http://www.w3.org/2000/svg">
<path d="M1246.36 246.071C1247.59 246.351 1249.01 246.215 1252.18 245.649C1253.67 245.34 1255.19 244.922 1256.42 244.507C1257.04 244.298 1257.57 244.097 1257.97 243.92C1258.18 243.832 1258.33 243.755 1258.45 243.693C1258.53 243.65 1258.57 243.623 1258.59 243.612C1259.02 243.248 1259.52 242.932 1259.99 242.683C1259.78 242.473 1259.59 242.247 1259.44 242.021C1259.01 241.399 1258.67 240.574 1258.67 239.671C1258.67 239.243 1258.72 238.582 1259.09 237.951C1259.52 237.228 1260.18 236.846 1260.82 236.675C1261.39 236.523 1262 236.52 1262.53 236.554C1263.1 236.589 1263.75 236.677 1264.49 236.796L1264.5 236.797C1266.22 237.08 1267.44 237.279 1268.37 237.383C1269.32 237.489 1269.76 237.466 1269.97 237.42C1270.04 237.405 1270.09 237.585 1271.03 235.913L1271.05 235.88C1272.05 234.174 1274 231.544 1275.5 229.948L1275.5 229.941L1275.51 229.934C1277.32 228.033 1278.46 226.222 1279.22 223.756C1280 221.215 1280.41 217.912 1280.64 212.972V212.971L1280.97 204.976L1279.15 203.981C1276.58 202.573 1274.36 201.014 1272.75 199.496C1271.95 198.739 1271.26 197.952 1270.75 197.159C1270.27 196.395 1269.84 195.454 1269.84 194.434C1269.84 194.491 1269.84 194.347 1269.7 193.895C1269.58 193.498 1269.4 192.99 1269.15 192.402C1268.68 191.237 1268.01 189.845 1267.3 188.507C1264.46 183.687 1259.38 179.81 1245.44 172.93L1245.43 172.925C1236.14 168.281 1229.41 163.811 1206.71 147.346L1206.7 147.339C1205.13 146.188 1203.67 145.16 1202.57 144.426C1202.01 144.057 1201.56 143.776 1201.25 143.594C1201.14 143.53 1201.06 143.489 1201 143.461C1200.95 143.447 1200.91 143.437 1200.88 143.429C1200.76 143.391 1200.66 143.347 1200.58 143.314C1200.43 143.247 1200.28 143.166 1200.14 143.088C1199.85 142.929 1199.49 142.706 1199.06 142.431C1198.19 141.876 1196.94 141.041 1195.27 139.91C1191.95 137.646 1186.91 134.149 1179.84 129.217C1178.56 128.356 1173.04 124.042 1167.64 119.74C1162.29 115.546 1150.73 107.347 1140.05 100.009C1134.71 96.3431 1129.6 92.9055 1125.63 90.3059C1123.64 89.0053 1121.94 87.9202 1120.64 87.1243C1119.26 86.2824 1118.5 85.872 1118.28 85.7883L1118.27 85.7844C1117.41 85.4547 1115.96 84.5429 1114.45 83.5159C1112.85 82.4325 1110.96 81.0594 1109.12 79.6428L1109.11 79.636C1100.79 73.1636 1084.54 62.2814 1078.72 59.2727C1075.93 57.8801 1070.5 54.1523 1066.49 51.0715C1062.23 47.82 1058 45.1188 1054.75 43.4504C1053.12 42.6083 1051.81 42.075 1050.93 41.842C1050.78 41.8032 1050.65 41.7783 1050.55 41.759C1050.37 41.9408 1050.16 42.1116 1049.91 42.2551C1049.37 42.57 1048.79 42.6804 1048.24 42.6604C1047.23 42.6241 1046.23 42.1571 1045.32 41.6116C1043.42 40.4833 1040.69 38.2723 1036.72 34.8127C1033.43 32.0319 1026.62 27.4234 1021.18 24.3684L1020.14 23.7913C1014.45 20.8106 1007.74 17.1751 1005.14 15.7825C1002.1 14.1717 998.068 12.5372 994.556 11.4006C992.802 10.8327 991.221 10.4038 989.991 10.1624C989.374 10.0412 988.885 9.97533 988.529 9.95532C988.281 9.94142 988.171 9.95477 988.154 9.95532C987.481 10.1764 986.746 10.1086 986.276 10.0442C985.71 9.96643 985.068 9.81939 984.399 9.63013C983.055 9.24981 981.449 8.65511 979.839 7.9231L979.816 7.91235L979.795 7.90161C967.646 2.0084 954.205 0.46967 944.561 3.45044L944.551 3.45337L944.539 3.45728C943.78 3.68226 943.09 3.93139 942.514 4.17212C942.611 4.23258 942.713 4.29685 942.822 4.3606C944.1 5.10861 945.938 5.91522 948.022 6.58032L948.021 6.5813C950.953 7.49787 953.075 8.28707 954.268 9.06274C954.587 9.26971 954.927 9.53051 955.212 9.8606C955.498 10.1919 955.817 10.698 955.878 11.3674C956.011 12.834 954.888 13.6543 954.425 13.9436C953.808 14.3289 953.03 14.5997 952.344 14.7747C951.638 14.9545 950.841 15.0803 950.123 15.0803C949.873 15.0804 949.124 15.2212 947.911 15.5901C946.784 15.9326 945.467 16.4043 944.209 16.9065C943.894 17.0319 943.587 17.1589 943.289 17.2844C944.304 17.5728 945.458 17.8798 946.681 18.179C950.959 19.2246 957.15 21.3135 960.384 22.8811L960.394 22.886L960.405 22.8918L965.99 25.6838L971.955 28.6663L965.327 29.4026L961.177 29.8645C960.478 29.9578 959.918 30.0652 959.481 30.1741C959.589 30.2737 959.707 30.3788 959.834 30.4905C960.905 31.4316 962.487 32.6375 964.455 34.009C968.38 36.7443 973.694 40.0353 979.178 43.0305L979.186 43.0354L979.196 43.0403C981.563 44.3656 984.092 45.902 986.26 47.3235C988.382 48.7152 990.282 50.0784 991.309 51.05L991.31 51.0491C993.557 53.1609 1002.22 60.1472 1011.53 67.4456C1020.81 74.7229 1030.56 82.1801 1034.93 85.2141L1034.93 85.218C1045.51 92.6135 1050.6 96.6673 1058.77 104.083L1058.77 104.084C1062.56 107.502 1067.96 111.889 1070.81 113.761L1070.85 113.784C1073.9 115.884 1077.86 119.242 1079.69 121.371C1083.45 125.674 1092.78 133.363 1097.92 136.429C1099.2 137.179 1101.22 138.742 1103.38 140.556C1105.59 142.41 1108.06 144.626 1110.28 146.75C1114.65 150.931 1120.62 156.254 1123.68 158.5C1126.93 160.895 1134.45 167.38 1140.4 172.774C1148.08 179.718 1153.05 183.397 1157.75 185.791C1160.08 186.935 1162.11 188.1 1163.73 189.26C1165.29 190.38 1166.61 191.581 1167.41 192.852C1168.41 194.248 1171.32 197.273 1173.87 199.455C1176.42 201.552 1179.88 204.45 1181.47 206.027C1189.81 213.528 1197.93 220.264 1204.09 224.767L1204.09 224.766C1212.36 230.759 1218.44 234.791 1223.16 237.332C1227.89 239.88 1231.07 240.828 1233.59 240.867H1233.61L1233.63 240.868C1235.02 240.92 1236.45 241.126 1237.76 241.485C1239 241.828 1240.26 242.348 1241.24 243.109C1243.88 245.048 1245.13 245.79 1246.36 246.071Z" stroke="#5932FF" stroke-width="3.93874"/>
<path d="M874.24 213.327C877.785 213.382 881.131 212.736 883.497 211.493L883.499 211.492C885.645 210.368 889.9 208.926 893.13 208.331C894.485 208.035 895.75 207.76 896.749 207.539C896.523 207.029 896.254 206.445 895.954 205.818C893.622 201.236 892.955 196.413 895.488 192.988V192.987C895.772 192.602 896.191 192.023 896.712 191.621C897.014 191.389 897.4 191.17 897.879 191.061C898.362 190.95 898.824 190.977 899.238 191.075C899.977 191.251 900.664 191.683 901.256 192.1C901.891 192.547 902.669 193.163 903.614 193.924L903.639 193.945L906.039 195.947L907.199 194.565L907.226 194.534C907.936 193.722 908.808 192.851 909.629 192.117C910.372 191.453 911.231 190.761 911.94 190.388V190.386C912.076 190.31 912.414 190.021 912.821 189.221C913.21 188.454 913.574 187.391 913.871 186.05C914.465 183.374 914.739 179.833 914.56 175.916C914.373 172.171 914.093 164.147 913.999 158.169C913.905 153.023 913.808 150.478 913.51 148.914C913.372 148.193 913.205 147.768 913.013 147.432C912.808 147.071 912.523 146.717 912.006 146.155L911.995 146.145C909.557 143.454 905.756 140.893 896.9 136.232L896.891 136.228L896.881 136.223C895.127 135.275 893.325 134.231 891.825 133.302C890.56 132.519 889.393 131.747 888.674 131.16L888.426 130.948C887.131 129.82 884.589 128.128 881.712 126.453C878.856 124.79 875.831 123.237 873.629 122.356C871.155 121.367 866.491 118.885 863.101 116.813C860.079 114.982 850.19 109.515 840.902 104.48C836.269 101.969 831.806 99.5766 828.452 97.8135C826.774 96.9311 825.382 96.2112 824.389 95.7139C823.89 95.4641 823.507 95.2785 823.244 95.1582C823.151 95.1153 823.082 95.0873 823.037 95.0684C822.931 95.0425 822.862 95.0176 822.848 95.0127C822.746 94.9781 822.656 94.9405 822.592 94.9121C822.459 94.8534 822.315 94.7807 822.176 94.708C821.892 94.5593 821.53 94.3554 821.12 94.1143C820.296 93.629 819.217 92.9583 818.071 92.1943C801.749 81.6251 774.699 66.9024 761.915 61.6602C755.488 59.0247 750.475 57.3553 746.693 56.5654C742.8 55.7525 740.646 55.971 739.584 56.5449L739.565 56.5547L739.124 56.7715C736.902 57.7872 734.28 57.8661 730.786 57.4199C727.282 57.0103 724.135 56.8783 721.568 57C719.105 57.1168 717.354 57.4597 716.334 57.8936L716.141 57.9814C715.903 58.097 715.695 58.2092 715.511 58.3125C715.623 58.359 715.745 58.4089 715.877 58.458L715.883 58.46C716.771 58.7931 717.621 59.2411 718.281 59.7061C718.606 59.9351 718.942 60.2087 719.22 60.5176C719.359 60.6722 719.521 60.876 719.656 61.125C719.784 61.3611 719.953 61.7566 719.953 62.2588C719.953 62.9476 719.688 63.5196 719.452 63.9082C719.204 64.3165 718.885 64.6896 718.556 65.0195C717.897 65.6806 717.019 66.3477 716.043 66.9814C714.08 68.2571 711.476 69.5553 708.789 70.5322C706.561 71.356 705.892 71.7268 705.505 72.1543C705.119 72.5812 704.838 73.2574 704.251 75.5078L704.248 75.5186L704.246 75.5293L704.112 76.0596C703.472 78.779 703.316 82.5218 703.659 87.1523L703.658 87.1533C703.846 89.6108 703.901 91.6625 703.812 93.1836C703.768 93.9358 703.685 94.6354 703.537 95.2168C703.464 95.5063 703.358 95.8339 703.194 96.1465C703.054 96.411 702.796 96.8081 702.347 97.1094C702.302 97.2029 702.198 97.5589 702.415 98.502C702.723 99.8346 703.58 101.696 705.081 103.86L705.082 103.862C705.956 105.125 706.824 106.524 707.525 107.756C708.197 108.938 708.8 110.113 709.054 110.876C709.044 110.847 709.109 111.019 709.448 111.435C709.76 111.818 710.219 112.304 710.846 112.897C712.098 114.082 713.911 115.592 716.295 117.417C721.056 121.062 727.968 125.872 736.932 131.724L736.938 131.728C744.31 136.58 752.943 142.769 756.189 145.442L756.201 145.452C765.155 152.945 778.59 161.243 800.358 172.871L800.357 172.872C816.044 181.183 819.143 183.109 828.119 190.29L828.129 190.298C833.504 194.654 838.088 198.106 841.561 200.46C843.301 201.639 844.73 202.52 845.822 203.099C846.368 203.388 846.798 203.585 847.118 203.704C847.476 203.837 847.558 203.821 847.46 203.821C848.193 203.821 849.088 204.073 849.947 204.366C850.882 204.685 852.044 205.151 853.419 205.756C856.171 206.966 859.885 208.777 864.548 211.202C867.204 212.527 870.711 213.272 874.24 213.327ZM702.299 97.1396C702.292 97.144 702.285 97.1481 702.279 97.1523L702.281 97.1533C702.287 97.149 702.293 97.1438 702.299 97.1396Z" stroke="#5932FF" stroke-width="3.93874"/>
<path d="M752.877 477.588L753.407 477.27C753.344 477.034 753.221 476.876 753.13 476.791C752.99 476.66 752.776 476.55 752.505 476.55C752.344 476.55 752.148 476.582 751.945 476.671C752.187 476.729 752.518 476.995 752.765 477.388L752.877 477.588ZM752.877 477.588C753.022 477.829 753.04 478.07 752.961 478.246C753.021 478.199 753.071 478.156 753.11 478.117C753.297 477.929 753.379 477.755 753.407 477.689C753.434 477.628 753.444 477.584 753.448 477.562C753.447 477.473 753.437 477.391 753.42 477.316L752.877 477.588ZM260.325 546.688C264.249 547.668 268.23 547.463 271.137 546.01L271.158 546L271.179 545.99C272.193 545.513 273.782 545.08 275.419 544.748C277.1 544.407 279.01 544.136 280.748 544.037L280.756 544.036C284.912 543.815 288.006 543.032 290.957 541.312C293.955 539.564 296.943 536.771 300.748 532.28V532.279C303.78 528.592 307.05 524.605 308.545 522.699L309.071 522.017C310.147 520.554 313.794 515.972 317.031 511.995C320.254 508.036 325.232 501.304 327.975 497.007L327.984 496.994L327.991 496.981C330.854 492.642 338.607 480.687 345.394 470.46V470.459C352.092 460.225 358.975 449.529 360.737 446.748C362.456 444.033 364.637 440.613 365.75 439.183H365.751C375.289 426.316 400.174 389.465 406.24 379.305L406.768 378.406C408.308 375.713 413.566 367.737 418.488 360.585L418.498 360.571C423.512 353.422 429.712 343.979 432.279 339.58L432.286 339.566L432.294 339.554C433.652 337.307 434.994 335.163 436.074 333.537C436.612 332.727 437.1 332.023 437.499 331.493C437.697 331.231 437.893 330.985 438.076 330.78C438.172 330.673 438.436 330.375 438.801 330.151C439.3 329.83 439.81 329.786 440.078 329.782C440.421 329.777 440.74 329.834 440.992 329.896C441.504 330.019 442.06 330.24 442.601 330.494C443.701 331.011 445.019 331.802 446.311 332.746C456.022 339.67 465.033 345.961 472.111 350.776C479.25 355.633 484.298 358.901 486.164 359.855L486.177 359.861L486.189 359.867C494.338 364.176 502.601 369.151 507.895 372.838L507.914 372.852C511.109 375.134 516.255 378.349 519.255 379.985L519.254 379.986C529.909 385.781 533.309 387.856 541.27 393.101L541.278 393.106L541.285 393.111C550.9 399.583 552.707 400.669 567.288 408.656L567.295 408.66L567.303 408.664C573.631 412.2 582.426 417.253 586.855 420.08C591.241 422.787 597.396 426.644 600.75 428.694C604.177 430.693 608.475 433.833 610.396 435.645C614.61 439.5 623.297 445.463 635.678 452.91C645.318 458.605 661.811 471.901 670.796 481.032L671.643 481.903C673.903 484.262 676.872 488.292 678.513 490.994L678.524 491.011L678.533 491.027L680.651 494.679L684.308 494.608C685.488 494.563 686.502 494.529 687.346 494.577C688.213 494.627 689.067 494.77 689.878 495.181C690.702 495.598 691.307 496.201 691.829 496.876C692.33 497.522 692.836 498.344 693.404 499.275C694.537 501.089 696.587 503.143 698.769 504.755C699.85 505.554 700.913 506.205 701.848 506.649C702.827 507.115 703.49 507.267 703.823 507.267C704.638 507.267 705.435 507.432 706.101 507.688C706.436 507.817 706.775 507.984 707.085 508.193C707.281 508.326 707.518 508.513 707.737 508.763C707.776 508.764 707.824 508.763 707.876 508.758C707.974 508.748 708.077 508.725 708.177 508.688L708.258 508.658L708.342 508.636C709.322 508.374 710.379 508.325 711.436 508.743C712.451 509.145 713.227 509.886 713.861 510.742C714.256 511.261 714.413 511.437 714.515 511.521C714.519 511.522 714.524 511.521 714.531 511.521C714.689 511.536 715.029 511.522 715.779 511.376C716.506 511.235 717.456 511.006 718.787 510.679C720.222 510.274 721.633 509.825 722.76 509.435C723.33 509.237 723.817 509.057 724.193 508.909C724.38 508.835 724.532 508.773 724.647 508.722C724.701 508.698 724.74 508.678 724.767 508.665C725.011 508.506 725.249 508.403 725.403 508.342C725.648 508.244 725.919 508.158 726.192 508.081C726.74 507.927 727.417 507.777 728.162 507.638C729.66 507.358 731.557 507.094 733.511 506.903L733.522 506.902C737.534 506.533 740.249 505.994 741.864 505.34C742.673 505.012 743.032 504.724 743.166 504.568C743.188 504.543 743.199 504.526 743.205 504.518C743.132 504.155 743.067 503.702 743.112 503.243C743.166 502.688 743.417 501.87 744.242 501.359C744.938 500.929 745.668 500.966 746.044 501.01C746.467 501.058 746.907 501.176 747.309 501.302H747.31C747.312 501.302 747.321 501.303 747.337 501.301C747.37 501.297 747.44 501.283 747.546 501.233C747.769 501.129 748.075 500.905 748.396 500.519C749.05 499.732 749.512 498.586 749.512 497.508C749.512 496.438 749.959 495.242 750.432 494.271C750.939 493.231 751.627 492.146 752.381 491.229L752.404 491.202L752.426 491.177C753.466 490.002 753.812 489.419 753.962 488.892C754.118 488.346 754.135 487.617 753.907 485.973C753.66 484.379 753.605 483.005 753.868 481.719C754.14 480.393 754.716 479.318 755.481 478.281L755.498 478.257L755.518 478.233C756.087 477.508 756.72 476.86 757.342 476.474C757.508 476.37 757.722 476.255 757.972 476.17C758.203 476.091 758.602 475.99 759.08 476.063C759.483 476.125 759.882 476.307 760.207 476.61C760.38 476.275 760.536 475.879 760.647 475.435L760.662 475.376C761.365 472.892 761.577 471.768 761.449 470.613C761.314 469.39 760.784 467.975 759.46 464.995C758.749 463.421 758.132 461.536 757.692 459.775C757.258 458.042 756.958 456.278 756.958 454.97C756.958 454.346 756.794 453.249 756.46 451.813C756.135 450.419 755.681 448.833 755.172 447.29C754.663 445.745 754.11 444.275 753.593 443.109C753.334 442.525 753.095 442.041 752.885 441.671C752.781 441.487 752.691 441.345 752.618 441.24L752.509 441.097C752.092 440.679 751.905 440.152 751.832 439.938C751.727 439.629 751.645 439.288 751.581 438.95C751.454 438.27 751.373 437.45 751.373 436.632C751.373 435.695 750.868 434.153 749.605 432.055C748.38 430.022 746.585 427.695 744.351 425.257C739.884 420.382 733.806 415.213 727.442 411.213L727.43 411.205C722.99 408.371 716.75 403.743 713.48 400.762L713.458 400.742C710.507 397.97 703.169 392.456 697.332 388.565C691.469 384.656 683.062 378.96 678.654 375.771C674.313 372.724 668.154 368.773 664.89 366.96L664.871 366.95L664.854 366.939C661.439 364.947 656.168 361.465 652.951 359.1L652.922 359.078C646.316 354.032 627.883 342.266 618.835 337.372C611.716 333.532 599.767 326.529 590.717 320.932C587.988 319.246 584.646 317.433 582.803 316.539L582.111 316.216C579.111 314.932 573.077 311.516 566.774 307.688C560.412 303.824 553.615 299.442 549.089 296.188L549.082 296.184C544.365 292.761 536.694 287.587 532.02 284.838L532.006 284.83L531.992 284.821C525.022 280.564 517.263 275.47 510.882 271.041C507.692 268.827 504.834 266.77 502.585 265.062C500.661 263.6 499.081 262.318 498.139 261.388L497.837 261.076C497.824 261.065 497.662 260.924 497.271 260.598C496.895 260.284 496.377 259.859 495.752 259.35C494.503 258.332 492.836 256.989 491.029 255.552C487.409 252.695 478.413 244.538 471.057 237.461V237.46C466.025 232.614 462.683 229.528 460.51 227.761C459.653 227.063 459.041 226.626 458.621 226.37C458.137 226.724 457.56 227.02 456.87 227.139C455.74 227.332 454.706 226.984 453.8 226.462C452.911 225.95 451.964 225.165 450.912 224.177C449.846 223.174 448.584 221.875 447.067 220.265L447.066 220.264C444.903 217.963 443.272 216.43 441.953 215.438C440.642 214.453 439.748 214.084 439.055 213.969L439.045 213.968L439.036 213.966C437.389 213.675 435.056 213.225 433.794 213.045L433.727 213.035L433.66 213.021C433.244 212.932 432.455 212.879 431.438 212.912C430.467 212.944 429.417 213.051 428.507 213.214C427.609 213.43 426.758 213.68 426.11 213.92C425.775 214.043 425.53 214.151 425.372 214.233C425.348 214.246 425.328 214.258 425.312 214.268C425.104 214.48 424.899 214.606 424.794 214.665C424.596 214.777 424.404 214.851 424.259 214.899C423.966 214.999 423.637 215.072 423.323 215.129C422.681 215.246 421.846 215.342 420.901 215.42C418.996 215.577 416.473 215.671 413.781 215.671H405.152L402.572 218.479L402.567 218.483L402.127 218.951C401.111 220.011 400.165 220.849 399.217 221.385C398.021 222.061 396.808 222.263 395.525 221.942L395.512 221.938C393.498 221.421 390.43 222.765 388.213 226.602C385.399 231.55 381.017 241.401 378.591 248.129L378.132 249.432C372.642 265.804 368.125 273.73 345.698 307.137L345.696 307.138L344.312 309.218C340.867 314.432 336.077 321.962 332.997 327.068L332.994 327.072L331.271 329.886C322.278 344.426 307.969 365.654 302.15 373.148L302.14 373.16L300.888 374.769C294.498 383.083 286.135 395.518 274.706 413.577L274.704 413.579L270.779 419.751C262.036 433.452 255.94 442.688 246.566 456.627L246.562 456.633L245.861 457.678C238.708 468.463 234.348 478.678 233.673 485.599C233.556 486.86 233.124 488.453 232.594 489.959C232.053 491.495 231.357 493.092 230.639 494.374L230.634 494.385L230.628 494.395L230.349 494.907C228.995 497.537 228.266 501.173 228.319 505.559C228.374 510.211 229.307 515.573 231.162 521.185C231.963 523.493 232.671 525.778 233.18 527.602C233.435 528.516 233.645 529.329 233.792 529.979C233.92 530.542 234.055 531.199 234.055 531.669C234.055 531.638 234.052 531.682 234.089 531.807C234.123 531.923 234.181 532.067 234.262 532.223C234.436 532.555 234.644 532.797 234.784 532.906L234.792 532.912C235.024 533.095 235.132 533.149 235.166 533.163C235.173 533.163 235.182 533.162 235.193 533.16C235.29 533.147 235.504 533.096 235.919 532.916C236.327 532.739 236.846 532.475 237.545 532.092C240.025 530.663 242.192 529.714 244.128 529.389C246.164 529.047 247.982 529.394 249.546 530.55L249.565 530.564L249.584 530.579C249.958 530.87 250.421 531.225 250.77 531.597C251.173 532.027 251.596 532.654 251.654 533.527C251.705 534.292 251.45 534.966 251.225 535.456C250.989 535.969 250.648 536.564 250.26 537.226L250.235 537.269L249.717 538.121C249.586 538.347 249.493 538.522 249.425 538.673C249.381 538.771 249.361 538.832 249.352 538.866C249.372 538.92 249.427 539.039 249.561 539.252C249.799 539.63 250.17 540.12 250.765 540.881L250.771 540.89L250.778 540.897C252.863 543.624 256.408 545.708 260.325 546.688ZM752.505 480.488C750.981 480.488 749.512 479.259 749.512 477.588C749.512 477.113 749.588 476.603 749.787 476.138C749.885 475.909 750.049 475.607 750.324 475.332C750.598 475.059 751.116 474.688 751.854 474.688C752.722 474.688 753.367 475.174 753.662 475.432C754.045 475.767 754.387 476.204 754.639 476.707L754.637 476.708C754.962 477.319 755.127 478.139 754.799 478.96C754.431 479.879 753.592 480.419 752.687 480.482L752.505 480.488ZM751.142 477.497C750.986 477.888 751.033 478.216 751.107 478.425C751.13 478.441 751.165 478.462 751.211 478.485C751.285 478.522 751.513 478.627 751.854 478.627L752.085 478.612C752.229 478.594 752.36 478.561 752.477 478.518C751.931 478.502 751.481 478.045 751.481 477.588L751.489 477.388C751.508 477.166 751.561 476.984 751.626 476.857C751.4 477.032 751.237 477.259 751.142 477.497Z" stroke="#5932FF" stroke-width="3.93874"/>
<mask id="path-4-inside-1_239_642" fill="white">
<path d="M189.268 218.263C181.356 220.962 173.724 224.872 169.907 228.223C168.232 229.712 165.16 231.76 163.112 232.877C158.272 235.297 144.496 248.514 139.842 255.123C132.954 264.897 122.343 279.417 117.782 285.188C110.242 294.776 102.982 307.994 91.7188 332.846C86.7855 343.644 72.1717 387.858 67.4245 405.915C65.9352 411.779 62.7705 425.183 60.4434 435.701C56.4409 453.666 53.9277 463.626 49.5529 478.984C46.9466 487.92 42.0133 513.983 38.9416 535.299C37.5453 544.421 35.5906 556.149 33.8221 566.016C33.4498 568.343 32.4259 577.185 31.5881 585.563C30.7504 594.033 29.7265 602.969 29.168 605.575C28.7026 608.089 27.3994 618.793 26.2825 629.311C25.2586 639.829 23.7693 652.395 23.0246 657.236C20.1391 675.759 19.7668 678.831 18.0913 695.027C17.0674 704.242 15.0196 721.276 13.5303 733.097C12.041 744.825 10.2724 760.184 9.71395 767.072C8.22464 785.037 3.19824 834.37 2.17434 841.537C0.685032 851.311 -0.61811 965.987 0.312706 996.518C1.61585 1037.75 2.82591 1055.53 4.96679 1067.26C5.43219 1069.77 6.45609 1077.13 7.20074 1083.55C7.9454 1089.97 9.80703 1100.86 11.2963 1107.75C12.8787 1114.64 14.5542 1123.48 15.0196 1127.3C16.5089 1139.03 22.1869 1164.06 28.1441 1185.47C29.7265 1191.06 32.3328 1201.39 33.8221 1208.28C38.1038 1227.45 38.5692 1229.22 45.178 1245.51C46.9466 1249.89 49.3667 1257.24 50.3906 1261.89C51.5076 1266.45 53.7415 1273.81 55.3239 1278.18C56.9063 1282.46 58.7679 1288.14 59.5126 1290.84C60.2573 1293.45 62.1189 1298.66 63.7013 1302.48C65.2837 1306.2 67.6107 1312.44 68.9138 1316.25C70.217 1320.07 71.9855 1324.91 72.9164 1326.96C73.7541 1329.01 76.0811 1334.87 77.9428 1339.99C82.783 1353.02 87.0648 1363.63 94.7905 1381.41C98.5138 1389.88 103.075 1400.49 105.03 1405.15C110.056 1417.15 115.175 1427.21 121.319 1436.79C124.204 1441.36 127.555 1447.03 128.765 1449.36C129.882 1451.69 134.909 1460.25 139.749 1468.44C144.589 1476.63 150.081 1485.85 151.85 1488.92C153.711 1491.99 157.062 1497.02 159.482 1500.09C161.809 1503.16 167.953 1511.72 172.979 1519.17C181.915 1532.39 192.34 1546.63 197.18 1552.22C198.483 1553.7 200.345 1555.94 201.276 1556.96C202.207 1558.08 205.651 1562.45 208.909 1566.74C220.916 1582.65 232.458 1595.59 252.75 1615.6C264.199 1626.87 274.996 1637.11 276.765 1638.32C278.534 1639.53 282.722 1643.06 286.073 1646.23C296.778 1656.37 314.556 1670.62 321.63 1674.71C325.354 1676.94 331.125 1680.95 334.383 1683.74C342.294 1690.44 350.486 1695.65 363.052 1701.98C368.73 1704.78 377.293 1709.71 381.947 1712.78C392.186 1719.48 404.287 1725.35 420.111 1731.4C426.533 1733.82 433.701 1736.7 435.935 1737.73C438.262 1738.75 444.963 1741.17 450.828 1743.03C456.692 1744.99 467.024 1748.34 473.633 1750.48C486.571 1754.76 491.784 1756.06 491.784 1755.13C491.784 1754.85 490.573 1754.11 488.991 1753.64C484.802 1752.15 485.64 1751.04 490.201 1752.06C494.669 1752.99 498.113 1755.6 495.041 1755.6C489.55 1755.6 515.426 1765.09 525.293 1766.77C529.109 1767.33 535.625 1768.63 539.721 1769.56C543.816 1770.58 550.89 1771.61 555.358 1771.98C560.85 1772.45 563.736 1773 564.108 1773.84C564.759 1775.52 571.648 1777.57 581.142 1778.87C588.961 1779.99 594.918 1780.92 615.396 1784.45C627.59 1786.59 657.376 1788.46 664.915 1787.62C667.708 1787.34 671.71 1787.53 673.758 1788.08C682.228 1790.22 699.635 1791.06 748.223 1791.53C799.139 1791.99 801.559 1791.9 823.154 1788.74C827.994 1788.08 837.023 1786.97 843.167 1786.32C884.029 1782.31 902.646 1779.61 924.613 1774.31C931.036 1772.82 940.437 1770.68 945.556 1769.56C950.676 1768.44 959.053 1766.3 964.08 1764.81C969.106 1763.32 974.039 1762.11 974.877 1762.11C977.204 1762.11 994.61 1757.65 1002.8 1754.95C1008.85 1752.99 1030.45 1743.5 1035.85 1740.52C1036.87 1739.87 1038.73 1738.94 1040.03 1738.29C1041.34 1737.73 1044.04 1736.33 1046.08 1735.31C1048.13 1734.28 1051.3 1733.17 1053.07 1732.79C1054.83 1732.42 1057.35 1731.49 1058.65 1730.84C1059.95 1730.09 1066.66 1727.67 1073.54 1725.44C1090.58 1719.95 1099.98 1715.85 1142.89 1695.56C1148.57 1692.95 1156.29 1688.77 1160.11 1686.35C1167.74 1681.6 1180.31 1674.34 1190.08 1669.13C1193.53 1667.26 1199.2 1663.73 1202.65 1661.21C1206.18 1658.79 1215.68 1652.09 1223.87 1646.32C1247.33 1630.03 1266.41 1614.77 1279.25 1602.11C1285.77 1595.68 1294.71 1587.12 1299.08 1583.21C1303.45 1579.21 1309.41 1572.79 1312.3 1568.97C1315.18 1565.15 1320.3 1558.73 1323.75 1554.73C1338.55 1537.32 1345.16 1528.57 1362 1503.53C1375.13 1483.99 1379.6 1476.45 1388.81 1458.76C1392.63 1451.31 1397.65 1441.82 1399.89 1437.72C1403.98 1430.09 1415.99 1403.19 1420.92 1390.72C1422.41 1386.9 1424.18 1382.43 1424.83 1380.95C1429.67 1370.33 1438.42 1347.16 1441.31 1337.66C1442.8 1332.82 1445.87 1323.14 1448.2 1316.25C1450.43 1309.37 1453.22 1300.34 1454.25 1296.24C1455.36 1292.15 1458.34 1280.88 1460.86 1271.11C1463.37 1261.43 1466.25 1249.05 1467.28 1243.65C1468.3 1238.25 1470.63 1226.52 1472.49 1217.59C1481.8 1173.09 1488.41 1124.69 1489.71 1092.39C1491.29 1053.39 1492.5 1028.63 1493.34 1020.25C1495.76 995.867 1496.41 968.035 1495.48 927.172C1494.64 889.288 1494.37 885.006 1492.5 877.374C1491.29 872.72 1490.27 865.459 1490.18 861.084C1489.9 854.569 1489.34 851.59 1486.64 844.795C1484.78 840.141 1482.92 833.998 1482.26 831.019C1480.78 823.107 1474.82 811.006 1469.7 805.608C1467.37 803.094 1464.3 798.72 1463 795.927C1458.99 787.55 1454.99 779.731 1453.97 778.428C1453.5 777.869 1452.01 777.311 1450.62 777.311C1449.22 777.311 1447.55 776.752 1446.99 776.194C1446.06 775.263 1445.59 775.263 1444.94 776.38C1444.47 777.125 1443.64 777.776 1443.08 777.776C1442.52 777.776 1441.77 778.335 1441.31 778.986C1440.75 779.917 1439.91 779.359 1438.05 776.939C1435.35 773.308 1432.84 772.564 1432.84 775.263C1432.84 780.662 1427.07 795.927 1425.02 795.927C1422.97 795.927 1421.67 799.557 1422.23 803.281C1422.51 805.328 1422.32 807.656 1421.76 808.586C1420.92 810.169 1420.83 810.076 1420.74 807.842C1420.74 803.094 1418.32 806.073 1414.69 815.288C1412.73 820.221 1410.03 827.203 1408.64 830.833C1406.96 835.208 1405.94 840.048 1405.47 845.726C1405.1 850.287 1404.36 855.779 1403.8 857.826C1403.15 860.247 1402.59 884.169 1402.12 928.568C1401.28 1011.88 1400.07 1042.13 1396.44 1073.31C1394.95 1086.34 1392.91 1104.4 1391.88 1113.43C1390.95 1122.46 1389.09 1136.33 1387.79 1144.15C1386.48 1152.06 1384.34 1165.55 1383.04 1174.12C1380.81 1189.1 1377.64 1203.81 1371.5 1228.76C1363.77 1259.66 1360.79 1270.92 1357.91 1279.95C1356.23 1285.35 1353.53 1294.75 1351.95 1300.89C1348.51 1314.48 1336.78 1343.62 1323.19 1372.57C1319.56 1380.2 1314.72 1391.56 1312.3 1397.7C1309.97 1403.84 1306.25 1411.76 1304.2 1415.39C1302.06 1418.92 1299.45 1423.58 1298.34 1425.62C1294.52 1432.51 1267.06 1475.61 1258.22 1488.55C1253.38 1495.62 1247.89 1502.79 1246.02 1504.46C1244.07 1506.14 1239.41 1510.89 1235.6 1514.98C1219.5 1532.11 1202 1549.61 1194.74 1555.85C1187.94 1561.62 1180.49 1566.92 1146.05 1590.47C1142.24 1593.08 1131.81 1599.13 1122.88 1603.88C1113.94 1608.62 1104.54 1613.65 1101.93 1615.05C1096.81 1617.84 1061.82 1634.22 1054.46 1637.2C1051.95 1638.32 1046.08 1640.64 1041.43 1642.41C1036.87 1644.18 1027.56 1647.72 1020.77 1650.32C1013.97 1652.93 1008.01 1655.07 1007.46 1655.07C1006.9 1655.07 1005.78 1655.44 1004.85 1656C1002.71 1657.12 957.936 1671.45 952.072 1672.85C949.559 1673.5 946.766 1674.25 946.022 1674.62C945.277 1675.08 940.251 1676.29 934.852 1677.41C929.453 1678.53 920.052 1680.67 913.909 1682.16C907.765 1683.74 897.898 1685.6 892.034 1686.25C880.306 1687.65 865.227 1690.35 852.94 1693.14C848.193 1694.26 837.582 1695.37 826.412 1696.03C816.173 1696.58 807.516 1697.33 807.144 1697.52C805.096 1698.82 761.534 1700.4 737.054 1700.21C688.651 1699.66 657.562 1697.61 632.802 1693.14C624.146 1691.56 613.627 1689.7 609.532 1689.05C589.426 1685.69 532.367 1671.27 513.192 1664.75C495.6 1658.79 489.363 1656.47 476.425 1650.6C471.306 1648.37 464.231 1645.48 460.694 1644.18C446.08 1638.87 408.848 1619.33 389.859 1606.95C360.538 1587.77 342.946 1573.44 318.186 1548.59C279.092 1509.4 248.747 1471.33 227.897 1435.4C224.826 1430.09 221.661 1424.69 220.916 1423.39C220.171 1422.09 217.844 1417.99 215.89 1414.45C213.842 1410.82 208.629 1401.89 204.254 1394.44C197.273 1382.53 187.686 1363.07 182.753 1350.69C176.33 1334.59 172.048 1324.54 168.232 1316.9C165.533 1311.51 150.826 1270.83 145.706 1254.82C143.658 1248.4 139.377 1234.99 136.212 1225.03C133.14 1215.07 130.162 1206.04 129.696 1205.02C129.231 1204 127.555 1198.13 125.88 1191.99C124.297 1185.85 121.598 1175.61 119.923 1169.18C112.011 1139.68 110.056 1131.95 108.66 1124.51C107.915 1120.13 105.774 1109.24 104.099 1100.3C100.468 1081.78 98.6069 1069.03 96.6522 1047.71C94.7905 1027.61 93.6735 1019.14 91.905 1011.6C90.6019 1006.38 90.5088 1002.01 90.9742 987.396C91.2534 977.529 91.905 966.173 92.3704 962.078C92.8358 957.982 93.3012 938.714 93.3012 919.167C93.3943 885.286 93.9528 874.209 97.1176 847.122C98.8861 832.229 100.748 808.493 101.306 793.6C101.958 775.356 104.192 752.83 106.053 744.732C107.729 737.472 110.707 718.576 112.476 703.776C114.338 688.511 115.641 679.761 116.665 674.456C117.502 669.988 120.667 643.553 121.784 631.173C122.063 627.822 123.18 619.444 124.111 612.557C125.135 605.668 126.345 594.499 126.904 587.89C128.114 573.462 129.138 564.34 130.999 551.123C131.837 545.724 132.489 537.533 132.489 532.879C132.489 528.224 133.14 520.685 133.885 516.124C134.629 511.563 136.77 498.625 138.539 487.362C140.401 476.099 142.355 465.301 142.821 463.44C143.751 459.716 147.289 439.425 150.267 420.808C151.198 414.386 152.687 407.498 153.432 405.45C154.828 401.727 159.948 383.483 163.299 370.544C166.091 360.026 178.005 325.027 180.426 320.28C181.636 317.953 184.335 312.461 186.383 307.9C188.431 303.432 190.944 298.592 191.968 297.103C193.085 295.614 196.901 289.284 200.531 282.954C207.605 270.482 214.959 262.011 221.009 259.312C225.105 257.45 229.2 251.865 229.945 247.025C230.41 244.233 230.038 243.395 227.059 240.602C223.243 236.972 223.057 236.507 225.477 236.507C227.618 236.507 228.27 235.017 227.525 231.946C227.059 230.457 225.663 229.339 222.778 228.223C218.868 226.733 218.589 226.454 218.589 223.196C218.496 218.821 217.007 217.704 211.701 218.263C209.374 218.449 205.651 218.077 203.324 217.332C197.832 215.656 196.529 215.75 189.268 218.263ZM446.639 1735.12C447.384 1736.33 446.174 1736.33 444.312 1735.12C443.102 1734.38 443.102 1734.19 444.498 1734.19C445.336 1734.19 446.36 1734.56 446.639 1735.12ZM481.545 1748.71C483.592 1749.55 485.268 1750.57 485.268 1751.04C485.268 1751.6 484.523 1751.5 483.499 1750.94C482.475 1750.48 480.707 1750.01 479.497 1750.01C478.287 1750.01 476.425 1749.36 475.401 1748.62C473.633 1747.31 473.726 1747.31 475.68 1747.22C476.89 1747.22 479.497 1747.87 481.545 1748.71ZM514.961 1757.09C526.131 1760.07 526.596 1760.16 526.038 1760.81C525.2 1761.56 499.323 1756.25 499.789 1755.41C500.626 1754.11 505.839 1754.67 514.961 1757.09Z"/>
</mask>
<path d="M189.268 218.263C181.356 220.962 173.724 224.872 169.907 228.223C168.232 229.712 165.16 231.76 163.112 232.877C158.272 235.297 144.496 248.514 139.842 255.123C132.954 264.897 122.343 279.417 117.782 285.188C110.242 294.776 102.982 307.994 91.7188 332.846C86.7855 343.644 72.1717 387.858 67.4245 405.915C65.9352 411.779 62.7705 425.183 60.4434 435.701C56.4409 453.666 53.9277 463.626 49.5529 478.984C46.9466 487.92 42.0133 513.983 38.9416 535.299C37.5453 544.421 35.5906 556.149 33.8221 566.016C33.4498 568.343 32.4259 577.185 31.5881 585.563C30.7504 594.033 29.7265 602.969 29.168 605.575C28.7026 608.089 27.3994 618.793 26.2825 629.311C25.2586 639.829 23.7693 652.395 23.0246 657.236C20.1391 675.759 19.7668 678.831 18.0913 695.027C17.0674 704.242 15.0196 721.276 13.5303 733.097C12.041 744.825 10.2724 760.184 9.71395 767.072C8.22464 785.037 3.19824 834.37 2.17434 841.537C0.685032 851.311 -0.61811 965.987 0.312706 996.518C1.61585 1037.75 2.82591 1055.53 4.96679 1067.26C5.43219 1069.77 6.45609 1077.13 7.20074 1083.55C7.9454 1089.97 9.80703 1100.86 11.2963 1107.75C12.8787 1114.64 14.5542 1123.48 15.0196 1127.3C16.5089 1139.03 22.1869 1164.06 28.1441 1185.47C29.7265 1191.06 32.3328 1201.39 33.8221 1208.28C38.1038 1227.45 38.5692 1229.22 45.178 1245.51C46.9466 1249.89 49.3667 1257.24 50.3906 1261.89C51.5076 1266.45 53.7415 1273.81 55.3239 1278.18C56.9063 1282.46 58.7679 1288.14 59.5126 1290.84C60.2573 1293.45 62.1189 1298.66 63.7013 1302.48C65.2837 1306.2 67.6107 1312.44 68.9138 1316.25C70.217 1320.07 71.9855 1324.91 72.9164 1326.96C73.7541 1329.01 76.0811 1334.87 77.9428 1339.99C82.783 1353.02 87.0648 1363.63 94.7905 1381.41C98.5138 1389.88 103.075 1400.49 105.03 1405.15C110.056 1417.15 115.175 1427.21 121.319 1436.79C124.204 1441.36 127.555 1447.03 128.765 1449.36C129.882 1451.69 134.909 1460.25 139.749 1468.44C144.589 1476.63 150.081 1485.85 151.85 1488.92C153.711 1491.99 157.062 1497.02 159.482 1500.09C161.809 1503.16 167.953 1511.72 172.979 1519.17C181.915 1532.39 192.34 1546.63 197.18 1552.22C198.483 1553.7 200.345 1555.94 201.276 1556.96C202.207 1558.08 205.651 1562.45 208.909 1566.74C220.916 1582.65 232.458 1595.59 252.75 1615.6C264.199 1626.87 274.996 1637.11 276.765 1638.32C278.534 1639.53 282.722 1643.06 286.073 1646.23C296.778 1656.37 314.556 1670.62 321.63 1674.71C325.354 1676.94 331.125 1680.95 334.383 1683.74C342.294 1690.44 350.486 1695.65 363.052 1701.98C368.73 1704.78 377.293 1709.71 381.947 1712.78C392.186 1719.48 404.287 1725.35 420.111 1731.4C426.533 1733.82 433.701 1736.7 435.935 1737.73C438.262 1738.75 444.963 1741.17 450.828 1743.03C456.692 1744.99 467.024 1748.34 473.633 1750.48C486.571 1754.76 491.784 1756.06 491.784 1755.13C491.784 1754.85 490.573 1754.11 488.991 1753.64C484.802 1752.15 485.64 1751.04 490.201 1752.06C494.669 1752.99 498.113 1755.6 495.041 1755.6C489.55 1755.6 515.426 1765.09 525.293 1766.77C529.109 1767.33 535.625 1768.63 539.721 1769.56C543.816 1770.58 550.89 1771.61 555.358 1771.98C560.85 1772.45 563.736 1773 564.108 1773.84C564.759 1775.52 571.648 1777.57 581.142 1778.87C588.961 1779.99 594.918 1780.92 615.396 1784.45C627.59 1786.59 657.376 1788.46 664.915 1787.62C667.708 1787.34 671.71 1787.53 673.758 1788.08C682.228 1790.22 699.635 1791.06 748.223 1791.53C799.139 1791.99 801.559 1791.9 823.154 1788.74C827.994 1788.08 837.023 1786.97 843.167 1786.32C884.029 1782.31 902.646 1779.61 924.613 1774.31C931.036 1772.82 940.437 1770.68 945.556 1769.56C950.676 1768.44 959.053 1766.3 964.08 1764.81C969.106 1763.32 974.039 1762.11 974.877 1762.11C977.204 1762.11 994.61 1757.65 1002.8 1754.95C1008.85 1752.99 1030.45 1743.5 1035.85 1740.52C1036.87 1739.87 1038.73 1738.94 1040.03 1738.29C1041.34 1737.73 1044.04 1736.33 1046.08 1735.31C1048.13 1734.28 1051.3 1733.17 1053.07 1732.79C1054.83 1732.42 1057.35 1731.49 1058.65 1730.84C1059.95 1730.09 1066.66 1727.67 1073.54 1725.44C1090.58 1719.95 1099.98 1715.85 1142.89 1695.56C1148.57 1692.95 1156.29 1688.77 1160.11 1686.35C1167.74 1681.6 1180.31 1674.34 1190.08 1669.13C1193.53 1667.26 1199.2 1663.73 1202.65 1661.21C1206.18 1658.79 1215.68 1652.09 1223.87 1646.32C1247.33 1630.03 1266.41 1614.77 1279.25 1602.11C1285.77 1595.68 1294.71 1587.12 1299.08 1583.21C1303.45 1579.21 1309.41 1572.79 1312.3 1568.97C1315.18 1565.15 1320.3 1558.73 1323.75 1554.73C1338.55 1537.32 1345.16 1528.57 1362 1503.53C1375.13 1483.99 1379.6 1476.45 1388.81 1458.76C1392.63 1451.31 1397.65 1441.82 1399.89 1437.72C1403.98 1430.09 1415.99 1403.19 1420.92 1390.72C1422.41 1386.9 1424.18 1382.43 1424.83 1380.95C1429.67 1370.33 1438.42 1347.16 1441.31 1337.66C1442.8 1332.82 1445.87 1323.14 1448.2 1316.25C1450.43 1309.37 1453.22 1300.34 1454.25 1296.24C1455.36 1292.15 1458.34 1280.88 1460.86 1271.11C1463.37 1261.43 1466.25 1249.05 1467.28 1243.65C1468.3 1238.25 1470.63 1226.52 1472.49 1217.59C1481.8 1173.09 1488.41 1124.69 1489.71 1092.39C1491.29 1053.39 1492.5 1028.63 1493.34 1020.25C1495.76 995.867 1496.41 968.035 1495.48 927.172C1494.64 889.288 1494.37 885.006 1492.5 877.374C1491.29 872.72 1490.27 865.459 1490.18 861.084C1489.9 854.569 1489.34 851.59 1486.64 844.795C1484.78 840.141 1482.92 833.998 1482.26 831.019C1480.78 823.107 1474.82 811.006 1469.7 805.608C1467.37 803.094 1464.3 798.72 1463 795.927C1458.99 787.55 1454.99 779.731 1453.97 778.428C1453.5 777.869 1452.01 777.311 1450.62 777.311C1449.22 777.311 1447.55 776.752 1446.99 776.194C1446.06 775.263 1445.59 775.263 1444.94 776.38C1444.47 777.125 1443.64 777.776 1443.08 777.776C1442.52 777.776 1441.77 778.335 1441.31 778.986C1440.75 779.917 1439.91 779.359 1438.05 776.939C1435.35 773.308 1432.84 772.564 1432.84 775.263C1432.84 780.662 1427.07 795.927 1425.02 795.927C1422.97 795.927 1421.67 799.557 1422.23 803.281C1422.51 805.328 1422.32 807.656 1421.76 808.586C1420.92 810.169 1420.83 810.076 1420.74 807.842C1420.74 803.094 1418.32 806.073 1414.69 815.288C1412.73 820.221 1410.03 827.203 1408.64 830.833C1406.96 835.208 1405.94 840.048 1405.47 845.726C1405.1 850.287 1404.36 855.779 1403.8 857.826C1403.15 860.247 1402.59 884.169 1402.12 928.568C1401.28 1011.88 1400.07 1042.13 1396.44 1073.31C1394.95 1086.34 1392.91 1104.4 1391.88 1113.43C1390.95 1122.46 1389.09 1136.33 1387.79 1144.15C1386.48 1152.06 1384.34 1165.55 1383.04 1174.12C1380.81 1189.1 1377.64 1203.81 1371.5 1228.76C1363.77 1259.66 1360.79 1270.92 1357.91 1279.95C1356.23 1285.35 1353.53 1294.75 1351.95 1300.89C1348.51 1314.48 1336.78 1343.62 1323.19 1372.57C1319.56 1380.2 1314.72 1391.56 1312.3 1397.7C1309.97 1403.84 1306.25 1411.76 1304.2 1415.39C1302.06 1418.92 1299.45 1423.58 1298.34 1425.62C1294.52 1432.51 1267.06 1475.61 1258.22 1488.55C1253.38 1495.62 1247.89 1502.79 1246.02 1504.46C1244.07 1506.14 1239.41 1510.89 1235.6 1514.98C1219.5 1532.11 1202 1549.61 1194.74 1555.85C1187.94 1561.62 1180.49 1566.92 1146.05 1590.47C1142.24 1593.08 1131.81 1599.13 1122.88 1603.88C1113.94 1608.62 1104.54 1613.65 1101.93 1615.05C1096.81 1617.84 1061.82 1634.22 1054.46 1637.2C1051.95 1638.32 1046.08 1640.64 1041.43 1642.41C1036.87 1644.18 1027.56 1647.72 1020.77 1650.32C1013.97 1652.93 1008.01 1655.07 1007.46 1655.07C1006.9 1655.07 1005.78 1655.44 1004.85 1656C1002.71 1657.12 957.936 1671.45 952.072 1672.85C949.559 1673.5 946.766 1674.25 946.022 1674.62C945.277 1675.08 940.251 1676.29 934.852 1677.41C929.453 1678.53 920.052 1680.67 913.909 1682.16C907.765 1683.74 897.898 1685.6 892.034 1686.25C880.306 1687.65 865.227 1690.35 852.94 1693.14C848.193 1694.26 837.582 1695.37 826.412 1696.03C816.173 1696.58 807.516 1697.33 807.144 1697.52C805.096 1698.82 761.534 1700.4 737.054 1700.21C688.651 1699.66 657.562 1697.61 632.802 1693.14C624.146 1691.56 613.627 1689.7 609.532 1689.05C589.426 1685.69 532.367 1671.27 513.192 1664.75C495.6 1658.79 489.363 1656.47 476.425 1650.6C471.306 1648.37 464.231 1645.48 460.694 1644.18C446.08 1638.87 408.848 1619.33 389.859 1606.95C360.538 1587.77 342.946 1573.44 318.186 1548.59C279.092 1509.4 248.747 1471.33 227.897 1435.4C224.826 1430.09 221.661 1424.69 220.916 1423.39C220.171 1422.09 217.844 1417.99 215.89 1414.45C213.842 1410.82 208.629 1401.89 204.254 1394.44C197.273 1382.53 187.686 1363.07 182.753 1350.69C176.33 1334.59 172.048 1324.54 168.232 1316.9C165.533 1311.51 150.826 1270.83 145.706 1254.82C143.658 1248.4 139.377 1234.99 136.212 1225.03C133.14 1215.07 130.162 1206.04 129.696 1205.02C129.231 1204 127.555 1198.13 125.88 1191.99C124.297 1185.85 121.598 1175.61 119.923 1169.18C112.011 1139.68 110.056 1131.95 108.66 1124.51C107.915 1120.13 105.774 1109.24 104.099 1100.3C100.468 1081.78 98.6069 1069.03 96.6522 1047.71C94.7905 1027.61 93.6735 1019.14 91.905 1011.6C90.6019 1006.38 90.5088 1002.01 90.9742 987.396C91.2534 977.529 91.905 966.173 92.3704 962.078C92.8358 957.982 93.3012 938.714 93.3012 919.167C93.3943 885.286 93.9528 874.209 97.1176 847.122C98.8861 832.229 100.748 808.493 101.306 793.6C101.958 775.356 104.192 752.83 106.053 744.732C107.729 737.472 110.707 718.576 112.476 703.776C114.338 688.511 115.641 679.761 116.665 674.456C117.502 669.988 120.667 643.553 121.784 631.173C122.063 627.822 123.18 619.444 124.111 612.557C125.135 605.668 126.345 594.499 126.904 587.89C128.114 573.462 129.138 564.34 130.999 551.123C131.837 545.724 132.489 537.533 132.489 532.879C132.489 528.224 133.14 520.685 133.885 516.124C134.629 511.563 136.77 498.625 138.539 487.362C140.401 476.099 142.355 465.301 142.821 463.44C143.751 459.716 147.289 439.425 150.267 420.808C151.198 414.386 152.687 407.498 153.432 405.45C154.828 401.727 159.948 383.483 163.299 370.544C166.091 360.026 178.005 325.027 180.426 320.28C181.636 317.953 184.335 312.461 186.383 307.9C188.431 303.432 190.944 298.592 191.968 297.103C193.085 295.614 196.901 289.284 200.531 282.954C207.605 270.482 214.959 262.011 221.009 259.312C225.105 257.45 229.2 251.865 229.945 247.025C230.41 244.233 230.038 243.395 227.059 240.602C223.243 236.972 223.057 236.507 225.477 236.507C227.618 236.507 228.27 235.017 227.525 231.946C227.059 230.457 225.663 229.339 222.778 228.223C218.868 226.733 218.589 226.454 218.589 223.196C218.496 218.821 217.007 217.704 211.701 218.263C209.374 218.449 205.651 218.077 203.324 217.332C197.832 215.656 196.529 215.75 189.268 218.263ZM446.639 1735.12C447.384 1736.33 446.174 1736.33 444.312 1735.12C443.102 1734.38 443.102 1734.19 444.498 1734.19C445.336 1734.19 446.36 1734.56 446.639 1735.12ZM481.545 1748.71C483.592 1749.55 485.268 1750.57 485.268 1751.04C485.268 1751.6 484.523 1751.5 483.499 1750.94C482.475 1750.48 480.707 1750.01 479.497 1750.01C478.287 1750.01 476.425 1749.36 475.401 1748.62C473.633 1747.31 473.726 1747.31 475.68 1747.22C476.89 1747.22 479.497 1747.87 481.545 1748.71ZM514.961 1757.09C526.131 1760.07 526.596 1760.16 526.038 1760.81C525.2 1761.56 499.323 1756.25 499.789 1755.41C500.626 1754.11 505.839 1754.67 514.961 1757.09Z" stroke="#5932FF" stroke-width="7.87747" mask="url(#path-4-inside-1_239_642)"/>
<path d="M1229.99 500.712C1230.35 499.925 1230.76 498.79 1231.18 497.257L1231.2 497.219L1231.21 497.181C1231.72 495.593 1232.24 494.03 1232.68 492.81C1232.9 492.203 1233.11 491.654 1233.3 491.221C1233.39 491.006 1233.49 490.793 1233.59 490.603C1233.67 490.468 1233.84 490.15 1234.11 489.879C1234.52 489.453 1235.01 489.296 1235.24 489.235C1235.55 489.15 1235.86 489.118 1236.12 489.106C1236.65 489.081 1237.27 489.124 1237.89 489.199C1239.16 489.353 1240.75 489.678 1242.35 490.115L1242.37 490.122L1242.4 490.129C1244.17 490.661 1245.65 490.955 1246.81 491.068C1247.96 491.178 1248.7 491.102 1249.1 490.989C1249.45 490.849 1250.12 490.419 1251.03 489.614C1251.93 488.825 1252.9 487.817 1253.81 486.757C1254.71 485.695 1255.51 484.621 1256.08 483.708C1256.36 483.251 1256.56 482.867 1256.68 482.569C1256.82 482.235 1256.8 482.15 1256.8 482.242C1256.8 481.448 1257.05 480.478 1257.32 479.661C1257.6 478.805 1257.98 477.88 1258.41 477.08V477.079C1259.05 475.802 1259.59 473.683 1259.59 472.562C1259.59 469.498 1261.08 467.269 1265.63 461.726L1265.63 461.722C1266.1 461.152 1266.07 460.961 1266.06 460.852C1266.03 460.555 1265.83 459.955 1264.96 458.681L1264.95 458.665L1264.94 458.649C1264.22 457.54 1263.72 456.463 1263.63 454.937C1263.56 453.575 1263.83 451.941 1264.29 449.728L1264.29 449.716C1264.8 447.339 1264.94 444.179 1264.75 441.214C1264.56 438.196 1264.04 435.741 1263.45 434.578C1263.17 434.084 1262.31 432.997 1260.9 431.444C1259.53 429.929 1257.77 428.119 1255.87 426.265C1252.06 422.532 1247.82 418.734 1245.15 416.824L1245.15 416.823C1242.11 414.636 1235.45 409.29 1230.33 405.006C1225.29 400.79 1213.81 392.458 1204.8 386.422C1189.97 376.627 1163.71 358.372 1136.91 339.293C1124.45 330.466 1112.28 322.1 1082.59 302.184C1069.06 293.135 1051.06 280.168 1042.54 273.524C1034.08 266.92 1022.67 258.392 1017.06 254.616L1017.05 254.613L1017.04 254.609C1011.4 250.749 1003.78 244.732 1000.07 241.305L1000.04 241.285C992.666 234.272 985.64 229.787 977.669 227.011C973.593 225.626 970.206 225.132 960.769 224.77L958.81 224.699L945.921 224.35L939.993 229.769L939.991 229.771C931.553 237.468 928.661 239.621 924.301 241.074L924.291 241.077L924.28 241.081C922.188 241.754 919.756 243.403 915.528 248.078C911.318 252.735 905.53 260.155 896.682 272.031L896.678 272.035L895.893 273.09C887.713 284.173 877.358 300.896 865.923 321.605C864.44 324.323 861.255 329.876 858.42 334.658L857.232 336.652C854.267 341.748 849.837 349.873 847.544 354.643L847.53 354.67L846.561 356.597C844.171 361.316 840.991 367.411 839.018 370.946L839.013 370.955L839.007 370.966L838.355 372.116C831.505 384.348 821.347 406.782 818.514 415.813L818.512 415.819L817.752 418.251C814.123 430.079 812.974 437.122 812.458 448.812H812.459L812.025 459.623L814.255 461.999L814.268 462.013L814.28 462.028C815.134 462.973 815.746 463.591 816.212 463.97C816.278 464.023 816.336 464.069 816.387 464.107C816.589 463.834 816.857 463.396 817.219 462.708C818.275 460.701 819.943 459.002 822.168 458.957C824.449 458.911 826.124 460.612 827.145 462.653C827.802 463.874 828.25 464.997 828.283 466.455C828.313 467.801 827.982 469.31 827.478 471.281L827.464 471.334L827.343 471.779C827.074 472.813 826.905 473.819 826.834 474.631C826.804 474.97 826.793 475.255 826.795 475.481C826.896 475.513 827.015 475.548 827.152 475.581C827.825 475.745 828.734 475.846 829.677 475.807L829.718 475.805H829.759C831.024 475.805 832.354 475.962 833.488 476.212C834.056 476.338 834.608 476.494 835.098 476.682C835.55 476.855 836.101 477.112 836.547 477.502C836.54 477.496 836.564 477.518 836.636 477.563C836.705 477.606 836.801 477.66 836.926 477.722C837.176 477.847 837.499 477.984 837.88 478.123C838.641 478.401 839.543 478.653 840.377 478.821L842.061 479.101L844.941 471.239V471.238C845.857 468.72 846.681 466.157 847.273 464.085C847.569 463.048 847.803 462.15 847.961 461.45C848.04 461.1 848.097 460.814 848.133 460.594C848.168 460.378 848.173 460.283 848.174 460.275C848.174 459.285 848.531 458.007 848.934 456.839C849.363 455.593 849.944 454.197 850.572 452.863C851.2 451.529 851.892 450.218 852.552 449.149C852.881 448.615 853.217 448.117 853.548 447.696C853.852 447.308 854.254 446.853 854.73 446.535L854.791 446.494L854.857 446.458C855.318 446.199 856.049 445.998 856.834 446.328C857.519 446.616 857.862 447.157 858.014 447.452C858.311 448.033 858.401 448.721 858.441 449.215C858.532 450.322 858.459 451.821 858.292 453.387C857.958 456.515 857.187 460.447 856.155 462.974L856.143 463.006L856.128 463.037L855.995 463.344C855.695 464.063 855.462 464.808 855.325 465.432C855.247 465.79 855.209 466.067 855.199 466.25C855.198 466.282 855.198 466.309 855.197 466.329L855.202 466.343C855.401 467.041 855.381 467.774 855.244 468.399C855.159 468.789 855.008 469.228 854.761 469.644C855.93 470.631 856.875 472.041 856.697 473.692C856.502 475.506 855.08 476.622 853.559 477.129L853.507 477.147L853.454 477.161C853.345 477.191 853.235 477.235 853.135 477.288C853.08 477.317 853.033 477.347 852.993 477.374C852.948 477.627 852.879 477.852 852.817 478.027C852.703 478.348 852.553 478.67 852.391 478.973C852.068 479.574 851.633 480.215 851.15 480.758L851.134 480.776L851.118 480.793L851.094 480.821C851.398 480.957 852.044 481.077 852.94 480.855C854.042 480.582 854.47 480.061 854.52 479.92V479.921C854.834 478.985 856.325 474.985 857.891 471.023V471.022C858.562 469.263 859.097 467.88 859.557 466.826C860.002 465.805 860.45 464.916 860.992 464.258C861.618 463.499 862.409 463 863.418 462.883C864.223 462.79 865.05 462.971 865.636 463.097L865.654 463.101L865.674 463.105C865.916 463.162 866.12 463.195 866.286 463.216C866.572 462.776 866.954 462.455 867.285 462.251C867.85 461.904 868.51 461.717 869.172 461.67C869.215 461.634 869.271 461.585 869.34 461.517C869.692 461.173 870.191 460.563 870.869 459.571C872.215 457.602 874.058 454.446 876.614 449.753V449.752C880.443 442.655 885.415 434.299 887.522 431.235L887.528 431.226L887.535 431.216C897.283 417.384 916.801 387.362 923.754 375.681C929.435 366.056 938.253 353.291 946.025 342.939C949.914 337.76 953.564 333.155 956.448 329.832C957.886 328.176 959.164 326.802 960.205 325.828C960.722 325.345 961.222 324.919 961.686 324.602C961.917 324.443 962.179 324.284 962.458 324.159C962.716 324.044 963.123 323.896 963.61 323.896H963.719L963.827 323.907C964.269 323.957 964.661 324.127 964.885 324.233C965.156 324.36 965.443 324.521 965.73 324.697C966.306 325.049 966.991 325.525 967.733 326.08C969.224 327.195 971.045 328.705 972.857 330.373L972.876 330.393C976.285 333.622 982.02 337.723 985.446 339.706C989.223 341.749 994.81 345.728 998.074 348.704L998.084 348.713C1012.83 362.342 1032.15 377.024 1042.84 382.872L1042.84 382.873C1050.58 387.12 1061.07 394.574 1065.7 399.11L1065.71 399.116L1065.72 399.124C1066.08 399.489 1066.93 400.168 1068.23 401.113C1069.5 402.031 1071.1 403.131 1072.89 404.32C1076.48 406.697 1080.8 409.4 1084.68 411.66L1084.68 411.662C1088.62 413.968 1097.55 420.367 1104.46 425.877C1110.9 431.009 1119.23 436.988 1123.66 439.645L1124.5 440.137C1128.94 442.683 1134.21 446.168 1136.42 447.801L1136.44 447.815L1136.46 447.83C1141.44 451.702 1149.21 457.254 1170.54 472.157L1170.55 472.161C1179.67 478.585 1186.01 483.254 1190.08 486.624C1192.11 488.304 1193.63 489.712 1194.66 490.89C1195.18 491.479 1195.62 492.058 1195.94 492.628C1196.24 493.181 1196.51 493.865 1196.51 494.622C1196.51 494.798 1196.62 495.368 1197.99 495.998C1199.31 496.606 1201.37 497.028 1204.04 497.028C1205.55 497.028 1207.05 497.125 1208.25 497.306C1208.83 497.395 1209.41 497.515 1209.9 497.68C1210.15 497.762 1210.43 497.875 1210.7 498.038C1210.85 498.129 1211.09 498.289 1211.32 498.539C1211.4 498.573 1211.53 498.617 1211.7 498.661C1212.21 498.792 1212.9 498.889 1213.63 498.889C1214.63 498.889 1215.65 498.994 1216.51 499.2C1216.93 499.303 1217.38 499.446 1217.79 499.652C1218.07 499.794 1218.53 500.066 1218.88 500.541C1218.91 500.553 1218.95 500.568 1219 500.582C1219.27 500.664 1219.67 500.72 1220.12 500.716C1220.37 500.714 1220.59 500.694 1220.79 500.663C1220.69 500.522 1220.58 500.372 1220.45 500.229L1220.45 500.221C1219.9 499.618 1219.43 498.905 1219.15 498.18C1219.02 497.819 1218.89 497.375 1218.88 496.895C1218.87 496.415 1218.97 495.75 1219.44 495.16L1219.51 495.075L1219.59 494.998C1220.23 494.354 1221.04 494.263 1221.58 494.322C1222.1 494.377 1222.55 494.575 1222.89 494.762C1223.58 495.145 1224.25 495.748 1224.82 496.433L1224.83 496.447C1225.14 496.823 1225.48 497.118 1225.73 497.281C1225.74 497.285 1225.75 497.289 1225.75 497.293C1226.31 497.243 1226.8 497.395 1227.13 497.55C1227.58 497.759 1227.95 498.062 1228.24 498.349C1228.81 498.917 1229.3 499.679 1229.66 500.496C1229.73 500.661 1229.8 500.808 1229.87 500.939C1229.91 500.869 1229.95 500.794 1229.99 500.712ZM1211.59 498.914C1211.59 498.907 1211.58 498.901 1211.58 498.894C1211.58 498.901 1211.59 498.909 1211.59 498.916L1211.59 498.914Z" stroke="#5932FF" stroke-width="3.93874"/>
<path d="M1008.66 800.408C1009.09 800.73 1009.31 801.138 1009.39 801.3C1009.52 801.555 1009.62 801.825 1009.69 802.063C1009.84 802.546 1009.96 803.132 1010.05 803.75C1010.25 804.999 1010.37 806.589 1010.37 808.213V813.029L1015.6 817.841L1015.61 817.85L1015.62 817.86C1019.95 821.964 1022.59 824.085 1025.22 825.235C1027.79 826.357 1030.52 826.629 1035.26 826.537V826.536C1037.48 826.489 1039.92 826.512 1042.04 826.595C1044.1 826.675 1046 826.817 1047.11 827.034C1049.18 827.418 1052.7 827.046 1056.6 826.008C1060.2 825.049 1063.85 823.598 1066.56 821.963L1067.09 821.634C1069.86 819.824 1073.57 817.944 1075.42 817.401L1075.43 817.399L1075.43 817.397C1076.73 817.027 1079.34 815.613 1082.41 813.538C1085.42 811.512 1088.63 809.018 1091.1 806.689L1091.1 806.684L1091.11 806.679C1095.73 802.375 1103.05 793.781 1110.45 784.214C1117.84 774.67 1125.21 764.287 1129.95 756.464C1136.04 746.373 1145.01 722.483 1151.15 699.999C1152.54 694.883 1154.87 686.315 1156.36 680.912C1157.74 675.928 1159.44 667.83 1160.33 662.368L1160.5 661.313C1160.87 658.517 1161.27 655.874 1161.63 653.858C1161.8 652.849 1161.97 651.974 1162.13 651.309C1162.2 650.979 1162.28 650.67 1162.36 650.41C1162.41 650.281 1162.45 650.137 1162.52 649.995C1162.54 649.943 1162.57 649.861 1162.63 649.762C1162.64 649.719 1162.65 649.657 1162.67 649.572C1162.71 649.296 1162.76 648.893 1162.81 648.357C1162.89 647.29 1162.96 645.824 1162.99 644.051C1163.07 640.512 1163.04 635.854 1162.93 630.937C1162.71 621.063 1162.16 610.346 1161.43 605.599C1158.56 587.158 1153.94 570.155 1149.13 560.168L1149.12 560.15L1149.11 560.13C1146.7 554.838 1143.5 547.512 1142.16 543.688C1138.24 532.735 1132.1 521.543 1123.06 508.99L1123.06 508.984L1123.05 508.978C1120.68 505.634 1118.48 502.569 1116.83 500.307C1116 499.176 1115.32 498.248 1114.83 497.588C1114.59 497.258 1114.39 497 1114.25 496.819C1114.18 496.728 1114.14 496.673 1114.11 496.643C1114.01 496.548 1113.93 496.459 1113.88 496.403C1113.75 496.27 1113.62 496.112 1113.48 495.942C1113.19 495.598 1112.83 495.15 1112.42 494.636C1111.62 493.607 1110.61 492.268 1109.58 490.865C1102.91 481.909 1096.34 475.33 1085.47 466.854L1085.47 466.852C1077.37 460.515 1071.37 456.532 1064.9 453.637C1058.42 450.74 1051.36 448.889 1041.08 446.944L1041.06 446.94C1035.49 445.826 1028.95 444.316 1026.58 443.527L1026.56 443.522C1022.93 442.282 1017.1 442.125 1006.75 443.243L1006.72 443.246L1006.7 443.248C1003.51 443.514 998.911 444.505 996.435 445.301L996.414 445.309L996.392 445.315L994.365 445.907C992.245 446.518 989.865 447.164 988.41 447.405C987.726 447.55 986.39 448.014 984.379 448.855C982.406 449.68 979.904 450.814 976.959 452.22C971.072 455.031 963.467 458.902 954.874 463.5L954.866 463.505L953.206 464.391C936.684 473.306 922.143 483.953 901.83 501.905L899.779 503.725C891.668 510.95 887.194 515.014 883.491 518.911C879.803 522.792 876.858 526.531 871.832 533.139L871.826 533.148L868.175 537.881C864.448 542.703 860.708 547.521 858.891 549.898L858.873 549.921L858.177 550.823C851.006 560.323 844.57 575.089 843.269 584.891V584.892L843.18 585.491C842.664 588.732 841.07 595.476 839.588 600.968L839.584 600.983L839.581 600.996L838.95 603.256C837.473 608.675 835.992 614.925 835.436 618.024L835.435 618.032L834.923 620.872C834.394 623.85 833.812 627.15 833.385 629.023C832.635 633.039 832.372 640.517 832.581 648.27C832.789 656.013 833.462 663.742 834.488 668.246L834.489 668.254C838.023 684.068 840.116 690.516 843.496 696.475L843.5 696.484L843.505 696.493C844.508 698.307 845.486 700.262 846.263 701.972C847.017 703.63 847.653 705.209 847.888 706.21L847.891 706.222L847.893 706.234C848.394 708.487 850.085 712.534 852.161 716.626C854.225 720.698 856.5 724.481 858.056 726.299C859.956 728.392 862.967 732.06 864.797 734.256L864.809 734.271L864.822 734.286C866.51 736.396 870.798 740.085 874.262 742.455C876.822 744.192 878.701 745.296 880.611 746.107C882.515 746.915 884.528 747.465 887.388 748.01L887.401 748.012L887.413 748.015C892.284 749.007 899.63 749.676 906.681 749.919C913.773 750.163 920.297 749.966 923.591 749.316C927.463 748.55 933.182 746.862 938.661 744.954C944.163 743.039 949.231 740.969 951.858 739.481L951.86 739.48C956.044 737.115 961.813 733.234 967.226 729.233C972.657 725.217 977.595 721.178 980.174 718.51L980.188 718.496C986.033 712.562 992.711 700.501 998.267 685.499L998.27 685.492L998.273 685.485C999.301 682.775 1000.35 680.082 1001.24 677.932C1001.68 676.858 1002.08 675.909 1002.41 675.156C1002.73 674.45 1003.04 673.795 1003.29 673.398C1003.8 672.607 1004.85 670.117 1005.48 667.873C1006.06 665.777 1007.02 663.024 1007.71 661.304L1007.99 660.634C1009.2 657.854 1010.73 653.381 1011.91 649.425C1012.5 647.452 1012.98 645.645 1013.29 644.275C1013.45 643.585 1013.55 643.04 1013.6 642.656C1013.62 642.527 1013.63 642.433 1013.63 642.369C1013.51 641.894 1013.5 641.406 1013.51 641.056C1013.51 640.561 1013.57 640.002 1013.65 639.422C1013.82 638.26 1014.12 636.886 1014.52 635.546L1014.52 635.533L1014.52 635.522C1015.29 633.044 1015.72 629.688 1015.47 627.1C1015.16 624.229 1015.56 618.986 1016.34 615.315C1017.07 611.838 1018.55 603.135 1019.57 595.988L1019.57 595.985C1020.59 588.946 1021.04 584.516 1020.89 579.287C1020.74 574.015 1019.99 567.885 1018.55 557.443L1018.55 557.429L1018.54 557.416C1017.71 550.749 1016.86 543.027 1016.76 540.214C1016.72 539.017 1016.68 538.042 1016.7 537.293C1016.71 536.632 1016.76 535.796 1017.09 535.103C1017.28 534.689 1017.61 534.246 1018.14 533.942C1018.65 533.647 1019.16 533.592 1019.54 533.601C1020.17 533.617 1020.86 533.846 1021.28 533.98L1021.28 533.981C1023.57 534.684 1026.41 536.521 1029.42 538.918C1032.51 541.37 1035.98 544.568 1039.53 548.196C1046.64 555.449 1054.22 564.525 1059.92 573.015L1059.92 573.014C1066.88 583.36 1071.04 591.566 1073.07 601.65C1075.08 611.663 1074.96 623.393 1073.66 640.721L1073.66 640.728C1072.35 657.384 1070.57 670.196 1068.09 679.922C1065.61 689.628 1062.38 696.457 1058.03 700.955L1058.02 700.968L1058.01 700.98L1057.71 701.293C1056.9 702.197 1055.21 704.281 1052.99 707.127C1050.5 710.324 1047.44 714.359 1044.42 718.443C1038.35 726.664 1029.93 737.143 1025.69 741.861L1025.68 741.867L1025.67 741.875C1023.59 744.142 1021.53 746.454 1019.91 748.343C1019.29 749.069 1018.75 749.715 1018.3 750.259C1018.53 750.274 1018.76 750.309 1018.99 750.375C1020.9 750.909 1021.54 752.757 1021.54 754.319C1021.54 754.904 1021.39 755.516 1021.23 756.032C1021.06 756.583 1020.83 757.182 1020.57 757.79C1020.03 759.008 1019.32 760.368 1018.58 761.636C1017.83 762.899 1017.02 764.126 1016.28 765.061C1015.91 765.522 1015.52 765.967 1015.12 766.315C1014.93 766.488 1014.68 766.678 1014.41 766.833C1014.15 766.975 1013.71 767.179 1013.14 767.179C1012.27 767.179 1011.67 766.687 1011.41 766.439C1011.1 766.141 1010.86 765.791 1010.67 765.475C1010.43 765.05 1010.21 764.556 1010.05 764.032L1009.67 764.392L1009.65 764.409L1009.64 764.427L1009.28 764.763C1008.51 765.513 1008.16 766.036 1007.95 766.562C1007.7 767.201 1007.57 768.052 1007.57 769.677C1007.57 772.623 1006.74 775.671 1005.35 778.032L1005.34 778.051L1005.32 778.069L1005.11 778.435C1004.08 780.325 1003.51 783.114 1003.58 786.259C1003.66 789.574 1004.44 793.041 1005.86 795.858C1006.49 797.068 1007.16 798.225 1007.73 799.11C1008.01 799.554 1008.26 799.908 1008.45 800.157C1008.62 800.378 1008.69 800.431 1008.66 800.408ZM1008.66 800.408C1008.63 800.385 1008.59 800.364 1008.56 800.341L1008.56 800.338C1008.61 800.372 1008.64 800.398 1008.66 800.408ZM925.04 670.912C923.814 671.209 922.557 671.006 921.539 670.106C920.654 669.323 920.161 668.191 919.845 667.084C919.686 666.527 919.591 665.572 919.515 664.57C919.433 663.479 919.359 662.077 919.294 660.467C919.165 657.243 919.072 653.127 919.025 648.879V648.868C918.978 640.253 919.185 634.512 920.033 629.691C920.891 624.809 922.394 620.946 924.815 616.057L924.818 616.05C927.419 610.848 928.896 608.521 938.06 595.826L942.484 589.712C945.821 585.088 952.154 577.869 957.869 571.839C960.734 568.815 963.477 566.056 965.646 564.043C966.726 563.041 967.694 562.196 968.478 561.59C968.866 561.29 969.25 561.018 969.605 560.812C969.782 560.708 969.988 560.6 970.209 560.514C970.406 560.437 970.749 560.323 971.165 560.323C972.033 560.323 972.631 560.793 972.936 561.115C973.257 561.453 973.471 561.842 973.616 562.179C973.909 562.863 974.066 563.691 974.066 564.526C974.066 566.984 973.528 571.408 972.737 576.213C971.939 581.06 970.856 586.447 969.722 590.89C967.542 599.605 964.051 608.931 958.545 621.25C957.209 624.338 954.543 630.899 952.205 636.796C951.037 639.742 949.955 642.51 949.167 644.584C948.773 645.623 948.456 646.478 948.24 647.09C948.131 647.398 948.052 647.628 948.003 647.783C947.992 647.818 947.985 647.846 947.979 647.866C947.939 648.134 947.858 648.341 947.808 648.456C947.729 648.637 947.637 648.793 947.56 648.912C947.406 649.152 947.203 649.416 946.971 649.698C946.5 650.27 945.753 651.105 944.629 652.323C942.371 654.768 938.473 658.877 931.914 665.761C930.58 667.167 929.377 668.308 928.292 669.156C927.235 669.981 926.144 670.646 925.04 670.912Z" stroke="#5932FF" stroke-width="3.93874"/>
<path d="M491.333 644.204L491.445 644.004C491.692 643.611 492.023 643.344 492.265 643.286C492.061 643.197 491.866 643.165 491.705 643.165C491.434 643.165 491.22 643.275 491.079 643.407C490.989 643.492 490.866 643.65 490.802 643.885L491.333 644.204ZM491.333 644.204C491.189 644.444 491.169 644.685 491.247 644.861C491.188 644.815 491.139 644.771 491.101 644.732C490.913 644.544 490.831 644.37 490.803 644.304C490.777 644.243 490.766 644.2 490.761 644.178C490.763 644.089 490.772 644.007 490.789 643.932L491.333 644.204ZM492.487 644.782C492.637 644.616 492.729 644.41 492.729 644.204C492.729 643.892 492.668 643.639 492.584 643.475C492.81 643.649 492.973 643.874 493.069 644.112C493.225 644.503 493.176 644.832 493.103 645.041C493.091 645.049 493.075 645.057 493.058 645.067M492.487 644.782L493.058 645.067M492.487 644.782L493.058 645.067M492.487 644.782C492.303 644.983 492.034 645.125 491.735 645.134C491.911 645.198 492.119 645.242 492.357 645.242C492.698 645.242 492.926 645.138 492.999 645.101C493.022 645.09 493.041 645.077 493.058 645.067M647.338 682.926L647.324 682.739C647.308 682.414 647.332 682.145 647.381 681.95C646.828 682.012 646.474 682.294 646.33 682.431C646.235 682.523 646.168 682.612 646.121 682.682C646.134 682.715 646.154 682.759 646.184 682.812C646.201 682.843 646.225 682.882 646.256 682.926H647.338ZM647.338 682.926L646.723 682.982M647.338 682.926C647.338 683.044 647.342 683.152 647.349 683.25M649.133 682.762C649.077 682.676 649.004 682.575 648.904 682.475C648.706 682.277 648.382 682.057 647.956 681.972C648.046 682.206 648.082 682.528 648.048 682.861M649.133 682.762L648.048 682.861M649.133 682.762C649.134 682.764 649.135 682.764 649.136 682.765C649.099 682.824 649.053 682.891 648.993 682.959C648.843 683.131 648.546 683.397 648.077 683.514C648.055 683.52 648.033 683.523 648.011 683.528L647.897 683.484M649.133 682.762L648.048 682.861M648.048 682.861C648.031 683.028 648.001 683.199 647.945 683.36L647.897 683.484M647.897 683.484L648.001 683.53C647.956 683.54 647.911 683.549 647.867 683.555C647.877 683.533 647.887 683.509 647.897 683.484ZM646.723 682.982L647.349 683.25M646.723 682.982L647.349 683.25M646.723 682.982L646.333 683.017C646.504 683.195 646.861 683.491 647.387 683.558C647.37 683.471 647.357 683.368 647.349 683.25M562.82 811.922C566.119 811.922 568.026 811.825 569.733 811.455C571.419 811.089 573.01 810.434 575.634 809.145L575.661 809.132C577.425 808.299 579.397 807.545 581.166 806.996C582.866 806.468 584.604 806.057 585.811 806.057C590.225 806.057 593.836 804.895 597.462 801.998C601.178 799.03 604.965 794.197 609.541 786.709L609.547 786.699L609.554 786.689C613.008 781.181 618.235 773.155 621.23 768.756L621.245 768.732C624.336 764.331 627.41 759.613 628.17 758.093C629.157 756.118 631.275 750.114 633.442 743.287C635.59 736.517 637.709 729.184 638.713 724.664L638.717 724.649L638.721 724.634C639.762 720.28 641.832 713.408 643.351 709.326L643.361 709.3L643.371 709.273C644.542 706.381 645.806 702.627 646.585 699.862C646.192 700.867 645.7 702.061 645.061 703.6L645.049 703.628L644.972 703.8C644.882 703.99 644.752 704.228 644.577 704.444C644.479 704.565 644.183 704.915 643.666 705.109C643.37 705.22 642.984 705.285 642.558 705.2C642.133 705.115 641.806 704.909 641.58 704.7C641.186 704.335 641.043 703.914 640.997 703.77C640.935 703.576 640.906 703.397 640.891 703.275C640.859 703.027 640.854 702.765 640.857 702.535C640.867 701.621 641.024 700.167 641.245 698.592C641.691 695.428 642.474 691.264 643.219 688.871V688.87C643.684 687.335 644.175 686.038 644.743 685.221C644.886 685.017 645.156 684.658 645.571 684.371C645.501 684.172 645.469 684.008 645.452 683.922C645.396 683.629 645.373 683.319 645.369 683.014C645.321 682.39 645.352 681.658 645.615 681.033C645.714 680.8 646.105 679.948 647.122 679.693C648.135 679.44 648.844 679.96 649.195 680.324L649.195 680.323C649.205 680.333 649.214 680.343 649.224 680.353C649.243 680.374 649.262 680.394 649.279 680.414C649.853 681.048 649.991 681.859 650.024 682.32C650.064 682.884 649.992 683.543 649.738 684.176H649.74C649.651 684.415 649.46 684.876 649.074 685.256C649.346 685.743 649.55 686.285 649.659 686.795C649.716 687.057 649.759 687.368 649.751 687.694C649.746 687.928 649.711 688.363 649.482 688.814C649.474 688.836 649.448 688.907 649.404 689.045C649.343 689.24 649.268 689.505 649.188 689.822C649.076 690.26 648.961 690.777 648.857 691.323C649.453 689.21 650.098 686.974 650.661 685.067L650.664 685.058C654.252 673.116 655.581 656.143 654.772 638.675C653.963 621.222 651.03 603.486 646.228 590.041L646.218 590.013C644.692 585.531 642.432 578.745 641.006 574.562L640.997 574.537L640.988 574.51C637.299 562.613 635.202 557.599 629.948 547.368L629.946 547.365C623.845 535.435 615.359 524.827 602.659 513.506C598.528 509.864 592.671 504.548 587.917 500.192L583.636 496.254C573.499 486.94 563.892 481.336 552.21 477.894H552.209C536.75 473.331 528.832 470.908 524.266 469.51L524.257 469.508C523.064 469.136 520.716 468.782 517.447 468.498C514.237 468.219 510.297 468.019 506.024 467.909C497.475 467.689 487.674 467.83 479.839 468.383C468.694 469.305 453.677 471.98 444.432 474.725H444.433C441.37 475.654 436.348 477.141 433.245 477.988H433.246C424.85 480.452 423.298 481.042 408.919 488.371L408.912 488.375L406.095 489.801C377.621 504.272 368.543 510.66 353.961 525.686C340.9 539.207 333.559 549.656 322.925 569.999L322.924 570.002L322.381 571.045C317.204 581.073 314.054 589.562 310.59 602.491L309.868 605.231L306.687 617.867L307.602 633.852V633.862C308.068 642.806 309.087 652.885 309.881 656.327L309.889 656.364C310.638 659.924 311.327 664.652 311.327 666.729C311.327 669.545 312.599 675.837 314.564 683.097C316.504 690.271 319.039 698.1 321.417 703.863C323.666 709.305 327.601 715.89 331.715 721.494C333.767 724.289 335.839 726.807 337.737 728.791C339.665 730.807 341.288 732.14 342.445 732.731C346.385 734.701 351.276 738.268 355.997 742.515C358.062 744.317 362.909 747.382 366.705 749.19L366.717 749.195C369.557 750.569 371.543 751.368 373.399 751.856C375.239 752.34 377.035 752.54 379.521 752.631H379.533C382.579 752.761 388.23 752.186 393.625 751.327C396.298 750.902 398.853 750.415 400.926 749.931C403.085 749.427 404.49 748.976 405.037 748.678L405.052 748.672L405.067 748.664C407.416 747.438 412.293 745.799 423.473 742.472C428.24 741.004 432.8 738.948 434.935 737.306L434.945 737.3L434.954 737.292C436.94 735.802 439.727 733.875 441.69 732.637L442.476 732.152C445.362 730.373 448.994 727.005 452.98 722.495C456.946 718.006 461.166 712.496 465.227 706.561C473.368 694.662 480.75 681.22 484.159 671.038V671.039C485.208 667.893 487.375 662.428 488.985 658.926L488.99 658.914C490.436 655.824 491.558 652.522 492.844 646.873C492.572 646.985 492.284 647.06 491.99 647.09L491.705 647.104C490.732 647.104 489.803 646.555 489.411 645.575C489.083 644.754 489.248 643.935 489.572 643.324L489.571 643.323C489.823 642.82 490.165 642.382 490.548 642.047C490.843 641.788 491.489 641.304 492.357 641.303C493.094 641.303 493.613 641.674 493.886 641.947C493.887 641.948 493.887 641.949 493.888 641.95C494.615 638.316 495.422 633.904 496.373 628.416L496.375 628.407L496.377 628.397C497.053 624.702 497.189 621.509 496.95 619.424C496.879 618.798 496.78 618.345 496.688 618.037C496.276 618.062 495.798 618.006 495.315 617.753C494.445 617.297 494.085 616.485 493.92 615.955C493.605 614.94 493.552 613.41 493.552 611.532C493.552 604.629 493.297 593.298 492.983 583.355C492.826 578.387 492.655 573.775 492.494 570.246C492.414 568.48 492.336 566.992 492.265 565.87C492.19 564.694 492.127 564.041 492.093 563.848C491.856 562.696 491.732 561.555 491.982 560.557C492.12 560.006 492.378 559.471 492.802 559.016C493.205 558.585 493.678 558.313 494.139 558.137V558.136C494.145 558.134 494.151 558.133 494.156 558.131C494.17 558.125 494.184 558.119 494.197 558.114V558.115C494.56 557.98 494.928 557.929 495.193 557.904C495.504 557.875 495.846 557.867 496.197 557.871C496.902 557.879 497.762 557.938 498.715 558.034C500.628 558.226 503.046 558.578 505.611 559.025C510.719 559.916 516.578 561.216 520.346 562.471L520.345 562.472C527.863 564.886 532.622 566.712 536.579 569.689C540.54 572.669 543.564 576.701 547.883 583.156C557.321 597.124 563.896 613.436 565.335 626.584C566.49 636.8 565.21 647.689 560.366 669.301L560.362 669.318C559.062 674.893 556.923 684.38 555.62 690.241C552.61 703.789 548.644 714.857 543.05 725.191H543.049C537.717 735.16 533.254 744.321 530.141 751.528C528.583 755.135 527.374 758.227 526.564 760.673C525.735 763.175 525.408 764.763 525.415 765.513C525.424 765.609 525.49 765.88 525.76 766.306C526.028 766.729 526.419 767.181 526.875 767.582C527.335 767.986 527.799 768.285 528.181 768.453C528.434 768.565 528.57 768.586 528.609 768.591C529.02 768.479 529.479 768.373 529.914 768.349C530.32 768.328 531.313 768.341 532.027 769.188C532.693 769.979 532.602 770.911 532.553 771.267C532.491 771.716 532.346 772.196 532.202 772.628C530.934 776.619 530.455 780.945 530.705 784.707C530.962 788.552 531.954 791.452 533.275 792.92C534.675 794.333 536.659 796.795 537.856 798.36C538.334 798.986 538.955 799.57 539.541 799.982C539.833 800.187 540.084 800.326 540.272 800.408C540.484 800.501 540.51 800.473 540.387 800.473C541.122 800.473 541.821 800.769 542.295 801.005C542.838 801.274 543.419 801.638 543.995 802.048C545.151 802.87 546.431 803.977 547.58 805.176L547.579 805.177C550.861 808.552 552.636 810.102 554.512 810.925C556.365 811.738 558.505 811.922 562.82 811.922ZM402.185 675.414C401.601 675.423 401.043 675.416 400.541 675.356C399.832 675.272 399.076 675.069 398.387 674.546C397.72 674.039 397.302 673.373 396.991 672.728C396.762 672.252 396.548 671.693 396.329 671.075L396.109 670.438C395.827 669.633 395.624 668.484 395.461 667.213C395.292 665.888 395.149 664.282 395.033 662.493C394.802 658.913 394.671 654.527 394.642 650.057C394.584 641.205 394.924 631.728 395.76 627.538V627.537C398.028 615.913 402.487 604.716 407.75 597.789L407.749 597.788C412.295 591.695 415.91 587.466 419.97 583.975C424.038 580.478 428.477 577.789 434.592 574.684L434.604 574.678C437.677 573.142 440.547 571.719 442.686 570.678C443.754 570.159 444.649 569.73 445.3 569.429C445.623 569.28 445.902 569.156 446.117 569.065C446.222 569.021 446.335 568.975 446.442 568.937C446.493 568.919 446.568 568.893 446.654 568.87C446.672 568.865 446.747 568.844 446.857 568.825C447.556 568.69 448.14 568.914 448.482 569.105C448.853 569.313 449.139 569.587 449.343 569.824C449.755 570.301 450.078 570.904 450.286 571.524C450.496 572.087 450.627 572.765 450.716 573.43C450.815 574.168 450.883 575.03 450.925 575.966C451.01 577.84 450.996 580.106 450.902 582.465C450.714 587.152 450.195 592.392 449.409 595.781C441.564 631.264 433.747 649.79 419.469 666.162L419.464 666.168L419.459 666.173L418.968 666.719C413.896 672.278 408.813 675.195 402.786 675.399L402.776 675.4L402.185 675.414Z" stroke="#5932FF" stroke-width="3.93874"/>
<mask id="path-8-inside-2_239_642" fill="white">
<path d="M743.576 764.279C739.202 764.931 736.874 766.141 730.731 770.609C725.612 774.239 723.657 773.96 728.218 770.236C734.734 764.744 735.106 763.814 730.824 764.744C726.263 765.768 721.609 768.375 715.559 773.308C705.227 781.685 686.145 803.373 680.281 813.333C676.185 820.314 671.904 826.551 667.156 832.601C663.154 837.72 655.614 850.1 655.614 851.59C655.614 852.148 654.218 854.475 652.449 856.802C650.681 859.036 647.516 864.435 645.375 868.717C643.234 872.998 641.094 876.908 640.628 877.559C639.604 878.676 627.969 882.493 625.456 882.493C622.85 882.493 611.68 886.309 606.002 889.195C603.023 890.684 598.741 893.756 596.507 895.896C592.691 899.713 592.505 900.271 591.853 906.88C591.295 912.465 591.481 914.42 592.691 916.747C594.46 920.098 594.18 920.005 597.531 918.701C601.068 917.398 604.978 918.329 603.489 920.191C602.93 920.842 601.161 921.773 599.579 922.052C597.066 922.611 596.88 922.89 598.183 924.193C599.579 925.496 600.138 925.496 605.071 924.1C608.05 923.262 612.611 922.332 615.31 922.052L620.15 921.494L620.709 924.752C621.081 926.52 620.895 928.754 620.243 929.871C619.685 930.988 619.499 932.291 619.778 932.757C620.057 933.222 619.871 935.27 619.405 937.132C617.544 944.485 616.427 968.779 617.544 978.46L618.568 987.582L615.961 990.002L613.262 992.422L615.775 991.957C617.172 991.677 618.568 991.864 618.847 992.329C619.219 992.888 615.868 994.935 611.214 997.076C606.746 999.124 600.789 1001.92 598.09 1003.13C593.156 1005.36 592.412 1007.22 596.414 1007.22C599.114 1007.22 601.441 1009.08 601.813 1011.41C601.999 1012.81 601.161 1013.74 598.183 1015.04C595.67 1016.16 594.18 1017.46 594.18 1018.48C594.18 1019.42 593.436 1020.53 592.598 1021.09C591.109 1021.84 591.202 1022.21 593.529 1024.35C594.925 1025.65 597.159 1027.05 598.462 1027.33C599.672 1027.61 601.068 1028.35 601.441 1029C601.813 1029.56 603.489 1030.77 605.164 1031.8C607.77 1033.19 609.818 1033.38 617.172 1033.19C624.339 1032.91 626.2 1033.1 626.759 1034.22C627.131 1034.96 629.272 1039.24 631.413 1043.71C633.554 1048.18 637.463 1054.23 640.07 1057.21C642.583 1060.19 645.282 1063.91 645.934 1065.58C647.516 1069.31 661.385 1081.5 668.553 1085.5C671.438 1087.18 676.465 1090.25 679.815 1092.39C688.1 1097.79 695.825 1101.51 703.551 1104.03C708.764 1105.61 712.208 1106.07 720.771 1105.98C726.635 1105.98 734.827 1106.35 738.922 1106.82C747.951 1107.94 761.262 1106.82 771.035 1104.21C774.852 1103.19 780.716 1101.61 784.067 1100.77C787.325 1099.93 793.189 1098.07 797.098 1096.58C800.915 1095.18 806.499 1093.51 809.478 1092.86C812.457 1092.3 817.949 1090.25 821.579 1088.3C857.136 1069.87 877.242 1057.21 880.686 1051.06C881.802 1049.11 882.547 1046.87 882.268 1046.13C881.989 1045.39 883.571 1043.43 886.084 1041.29C888.877 1038.87 891.204 1035.89 892.693 1032.45C894.741 1027.89 895.02 1026.02 894.927 1016.06C894.927 1009.92 894.927 1002.01 894.927 998.472C894.927 993.353 894.648 991.771 893.158 990.095C892.135 989.071 891.111 987.116 890.924 985.906C890.552 982.928 883.943 979.205 882.64 981.252C881.989 982.369 881.709 982.369 880.686 981.252C879.755 980.228 879.755 979.949 880.686 979.577C882.733 978.832 881.896 977.808 877.893 976.226C875.659 975.295 872.215 973.806 870.167 972.782C858.997 967.476 851.644 966.173 846.059 968.5C844.104 969.338 841.033 969.989 839.264 969.989C835.448 969.989 830.701 972.316 820.369 979.298C805.941 989.164 783.136 1003.5 779.133 1005.36C774.945 1007.22 768.988 1009.36 758.469 1012.9C753.164 1014.76 749.999 1015.13 741.249 1015.13C735.292 1015.13 729.8 1014.67 728.869 1014.11C725.332 1012.06 716.024 1002.2 716.303 1000.8C716.583 999.403 728.963 993.539 735.664 991.584C743.762 989.257 767.312 985.441 788.256 982.928C792.91 982.369 797.471 981.438 798.494 980.694C799.518 980.042 801.845 979.205 803.614 978.832C807.43 977.994 812.55 973.154 815.715 967.383C817.855 963.567 817.855 963.381 816.18 962.171C814.598 960.961 814.598 960.867 817.204 959.657C820.648 957.982 822.882 953.7 821.299 951.839C820.462 950.908 819.066 950.628 815.994 951.094C812.177 951.559 811.805 951.466 812.177 949.884C812.364 948.674 813.388 948.022 815.342 947.836C817.762 947.557 818.414 947.091 818.879 944.671C819.717 940.669 818.972 940.11 813.853 940.762C809.944 941.32 809.292 941.134 808.361 939.366C807.151 937.132 807.71 935.549 809.664 935.549C811.619 935.549 808.082 928.196 804.917 925.403C802.59 923.449 801.752 923.262 796.726 923.821C793.561 924.1 788.814 925.031 786.115 925.683C781.833 926.8 780.902 926.8 778.482 925.59C776.155 924.473 774.759 924.473 770.384 925.31C767.405 925.869 764.147 926.706 763.123 927.172C762.1 927.637 756.701 928.847 751.023 929.964C735.385 932.943 720.958 937.969 707.368 945.23C704.854 946.533 702.062 947.65 701.224 947.65C697.78 947.65 698.059 936.945 701.876 924.659C703.551 919.26 704.389 918.701 713.79 916.84C716.862 916.281 723.936 914.327 729.521 912.651C745.624 907.625 756.794 905.018 767.126 903.995C775.596 903.064 778.11 902.412 789.466 897.479C800.915 892.546 802.404 891.615 804.266 888.357C807.058 883.703 806.965 881.748 803.986 880.631C801.938 879.793 801.659 879.328 802.218 877.094C802.962 874.022 804.359 872.254 806.034 872.254C807.896 872.254 807.71 871.044 804.452 864.342C802.032 859.408 801.008 858.292 798.681 857.733C797.098 857.454 795.237 856.523 794.492 855.871C793.84 855.127 792.444 854.568 791.42 854.568C790.489 854.568 789.652 853.917 789.652 853.172C789.652 852.334 790.489 851.776 791.606 851.776C795.609 851.776 791.606 849.263 786.766 848.704C784.16 848.332 781.461 847.68 780.809 847.122C779.133 845.725 770.291 845.632 759.4 846.936C749.72 848.053 747.765 848.518 737.061 851.683C733.43 852.8 730.266 853.265 729.8 852.8C728.125 851.124 746.276 820.128 750.464 817.522C751.581 816.87 752.419 815.846 752.419 815.102C752.419 814.357 753.908 812.495 755.677 810.913C757.445 809.331 758.935 807.655 758.935 807.097C758.935 806.538 760.052 805.607 761.448 804.956C766.102 802.908 769.174 799.371 768.522 796.951C768.057 794.996 768.243 794.81 769.918 795.182C771.035 795.554 772.245 795.368 772.525 794.81C772.804 794.344 772.245 793.693 771.128 793.414C768.708 792.762 768.708 791.645 771.128 787.643C773.269 784.105 772.99 778.8 770.57 777.869C769.825 777.59 769.174 776.566 769.174 775.542C769.174 773.401 767.405 772.656 762.1 772.656C758.004 772.656 757.632 772.284 758.004 768.654C758.283 765.768 749.906 763.162 743.576 764.279ZM878.079 984.045C878.079 984.51 877.428 984.883 876.683 984.883C875.287 984.883 874.821 983.766 875.845 982.742C876.59 981.997 878.079 982.835 878.079 984.045ZM868.213 1055.07C867.282 1055.81 866.258 1056.18 865.979 1055.9C865.699 1055.72 866.351 1054.88 867.282 1054.14C868.306 1053.48 869.33 1053.02 869.609 1053.3C869.795 1053.58 869.236 1054.41 868.213 1055.07Z"/>
</mask>
<path d="M743.576 764.279C739.202 764.931 736.874 766.141 730.731 770.609C725.612 774.239 723.657 773.96 728.218 770.236C734.734 764.744 735.106 763.814 730.824 764.744C726.263 765.768 721.609 768.375 715.559 773.308C705.227 781.685 686.145 803.373 680.281 813.333C676.185 820.314 671.904 826.551 667.156 832.601C663.154 837.72 655.614 850.1 655.614 851.59C655.614 852.148 654.218 854.475 652.449 856.802C650.681 859.036 647.516 864.435 645.375 868.717C643.234 872.998 641.094 876.908 640.628 877.559C639.604 878.676 627.969 882.493 625.456 882.493C622.85 882.493 611.68 886.309 606.002 889.195C603.023 890.684 598.741 893.756 596.507 895.896C592.691 899.713 592.505 900.271 591.853 906.88C591.295 912.465 591.481 914.42 592.691 916.747C594.46 920.098 594.18 920.005 597.531 918.701C601.068 917.398 604.978 918.329 603.489 920.191C602.93 920.842 601.161 921.773 599.579 922.052C597.066 922.611 596.88 922.89 598.183 924.193C599.579 925.496 600.138 925.496 605.071 924.1C608.05 923.262 612.611 922.332 615.31 922.052L620.15 921.494L620.709 924.752C621.081 926.52 620.895 928.754 620.243 929.871C619.685 930.988 619.499 932.291 619.778 932.757C620.057 933.222 619.871 935.27 619.405 937.132C617.544 944.485 616.427 968.779 617.544 978.46L618.568 987.582L615.961 990.002L613.262 992.422L615.775 991.957C617.172 991.677 618.568 991.864 618.847 992.329C619.219 992.888 615.868 994.935 611.214 997.076C606.746 999.124 600.789 1001.92 598.09 1003.13C593.156 1005.36 592.412 1007.22 596.414 1007.22C599.114 1007.22 601.441 1009.08 601.813 1011.41C601.999 1012.81 601.161 1013.74 598.183 1015.04C595.67 1016.16 594.18 1017.46 594.18 1018.48C594.18 1019.42 593.436 1020.53 592.598 1021.09C591.109 1021.84 591.202 1022.21 593.529 1024.35C594.925 1025.65 597.159 1027.05 598.462 1027.33C599.672 1027.61 601.068 1028.35 601.441 1029C601.813 1029.56 603.489 1030.77 605.164 1031.8C607.77 1033.19 609.818 1033.38 617.172 1033.19C624.339 1032.91 626.2 1033.1 626.759 1034.22C627.131 1034.96 629.272 1039.24 631.413 1043.71C633.554 1048.18 637.463 1054.23 640.07 1057.21C642.583 1060.19 645.282 1063.91 645.934 1065.58C647.516 1069.31 661.385 1081.5 668.553 1085.5C671.438 1087.18 676.465 1090.25 679.815 1092.39C688.1 1097.79 695.825 1101.51 703.551 1104.03C708.764 1105.61 712.208 1106.07 720.771 1105.98C726.635 1105.98 734.827 1106.35 738.922 1106.82C747.951 1107.94 761.262 1106.82 771.035 1104.21C774.852 1103.19 780.716 1101.61 784.067 1100.77C787.325 1099.93 793.189 1098.07 797.098 1096.58C800.915 1095.18 806.499 1093.51 809.478 1092.86C812.457 1092.3 817.949 1090.25 821.579 1088.3C857.136 1069.87 877.242 1057.21 880.686 1051.06C881.802 1049.11 882.547 1046.87 882.268 1046.13C881.989 1045.39 883.571 1043.43 886.084 1041.29C888.877 1038.87 891.204 1035.89 892.693 1032.45C894.741 1027.89 895.02 1026.02 894.927 1016.06C894.927 1009.92 894.927 1002.01 894.927 998.472C894.927 993.353 894.648 991.771 893.158 990.095C892.135 989.071 891.111 987.116 890.924 985.906C890.552 982.928 883.943 979.205 882.64 981.252C881.989 982.369 881.709 982.369 880.686 981.252C879.755 980.228 879.755 979.949 880.686 979.577C882.733 978.832 881.896 977.808 877.893 976.226C875.659 975.295 872.215 973.806 870.167 972.782C858.997 967.476 851.644 966.173 846.059 968.5C844.104 969.338 841.033 969.989 839.264 969.989C835.448 969.989 830.701 972.316 820.369 979.298C805.941 989.164 783.136 1003.5 779.133 1005.36C774.945 1007.22 768.988 1009.36 758.469 1012.9C753.164 1014.76 749.999 1015.13 741.249 1015.13C735.292 1015.13 729.8 1014.67 728.869 1014.11C725.332 1012.06 716.024 1002.2 716.303 1000.8C716.583 999.403 728.963 993.539 735.664 991.584C743.762 989.257 767.312 985.441 788.256 982.928C792.91 982.369 797.471 981.438 798.494 980.694C799.518 980.042 801.845 979.205 803.614 978.832C807.43 977.994 812.55 973.154 815.715 967.383C817.855 963.567 817.855 963.381 816.18 962.171C814.598 960.961 814.598 960.867 817.204 959.657C820.648 957.982 822.882 953.7 821.299 951.839C820.462 950.908 819.066 950.628 815.994 951.094C812.177 951.559 811.805 951.466 812.177 949.884C812.364 948.674 813.388 948.022 815.342 947.836C817.762 947.557 818.414 947.091 818.879 944.671C819.717 940.669 818.972 940.11 813.853 940.762C809.944 941.32 809.292 941.134 808.361 939.366C807.151 937.132 807.71 935.549 809.664 935.549C811.619 935.549 808.082 928.196 804.917 925.403C802.59 923.449 801.752 923.262 796.726 923.821C793.561 924.1 788.814 925.031 786.115 925.683C781.833 926.8 780.902 926.8 778.482 925.59C776.155 924.473 774.759 924.473 770.384 925.31C767.405 925.869 764.147 926.706 763.123 927.172C762.1 927.637 756.701 928.847 751.023 929.964C735.385 932.943 720.958 937.969 707.368 945.23C704.854 946.533 702.062 947.65 701.224 947.65C697.78 947.65 698.059 936.945 701.876 924.659C703.551 919.26 704.389 918.701 713.79 916.84C716.862 916.281 723.936 914.327 729.521 912.651C745.624 907.625 756.794 905.018 767.126 903.995C775.596 903.064 778.11 902.412 789.466 897.479C800.915 892.546 802.404 891.615 804.266 888.357C807.058 883.703 806.965 881.748 803.986 880.631C801.938 879.793 801.659 879.328 802.218 877.094C802.962 874.022 804.359 872.254 806.034 872.254C807.896 872.254 807.71 871.044 804.452 864.342C802.032 859.408 801.008 858.292 798.681 857.733C797.098 857.454 795.237 856.523 794.492 855.871C793.84 855.127 792.444 854.568 791.42 854.568C790.489 854.568 789.652 853.917 789.652 853.172C789.652 852.334 790.489 851.776 791.606 851.776C795.609 851.776 791.606 849.263 786.766 848.704C784.16 848.332 781.461 847.68 780.809 847.122C779.133 845.725 770.291 845.632 759.4 846.936C749.72 848.053 747.765 848.518 737.061 851.683C733.43 852.8 730.266 853.265 729.8 852.8C728.125 851.124 746.276 820.128 750.464 817.522C751.581 816.87 752.419 815.846 752.419 815.102C752.419 814.357 753.908 812.495 755.677 810.913C757.445 809.331 758.935 807.655 758.935 807.097C758.935 806.538 760.052 805.607 761.448 804.956C766.102 802.908 769.174 799.371 768.522 796.951C768.057 794.996 768.243 794.81 769.918 795.182C771.035 795.554 772.245 795.368 772.525 794.81C772.804 794.344 772.245 793.693 771.128 793.414C768.708 792.762 768.708 791.645 771.128 787.643C773.269 784.105 772.99 778.8 770.57 777.869C769.825 777.59 769.174 776.566 769.174 775.542C769.174 773.401 767.405 772.656 762.1 772.656C758.004 772.656 757.632 772.284 758.004 768.654C758.283 765.768 749.906 763.162 743.576 764.279ZM878.079 984.045C878.079 984.51 877.428 984.883 876.683 984.883C875.287 984.883 874.821 983.766 875.845 982.742C876.59 981.997 878.079 982.835 878.079 984.045ZM868.213 1055.07C867.282 1055.81 866.258 1056.18 865.979 1055.9C865.699 1055.72 866.351 1054.88 867.282 1054.14C868.306 1053.48 869.33 1053.02 869.609 1053.3C869.795 1053.58 869.236 1054.41 868.213 1055.07Z" stroke="#5932FF" stroke-width="7.87747" mask="url(#path-8-inside-2_239_642)"/>
<path d="M935.28 1444.51C937.854 1444.66 940.513 1444.15 942.206 1443.12L942.225 1443.11L942.243 1443.1C943.282 1442.49 944.585 1441.95 945.841 1441.56C947.071 1441.17 948.431 1440.88 949.56 1440.88C950.736 1440.88 951.063 1440.74 951.154 1440.69C951.17 1440.68 951.208 1440.65 951.275 1440.55C951.355 1440.43 951.466 1440.21 951.601 1439.8L951.626 1439.72L951.658 1439.65C952.038 1438.76 952.618 1437.92 953.267 1437.24C953.877 1436.6 954.72 1435.93 955.706 1435.65V1435.65C955.747 1435.64 955.784 1435.63 955.817 1435.61C955.817 1435.56 955.817 1435.49 955.813 1435.41C955.795 1435.03 955.733 1434.5 955.62 1433.76C955.483 1432.92 955.368 1432.16 955.327 1431.55C955.291 1431.01 955.276 1430.19 955.66 1429.44C956.144 1428.49 956.989 1428.12 957.656 1427.97C958.226 1427.85 958.884 1427.84 959.426 1427.84C959.627 1427.84 959.793 1427.83 959.924 1427.81C960.071 1426.87 960.573 1425.99 961.513 1425.47C962.497 1424.93 963.599 1424.98 964.453 1425.17C966.205 1425.56 968.118 1426.8 969.588 1428.54L969.601 1428.56L969.612 1428.57C969.984 1429.03 970.303 1429.4 970.574 1429.7C970.826 1428.84 971.241 1428.02 971.782 1427.37C972.217 1426.84 972.98 1426.15 974.025 1426.01L974.026 1426.01C974.159 1425.86 974.294 1425.63 974.355 1425.37L974.376 1425.28L974.405 1425.19C974.867 1423.8 976.035 1421.8 977.144 1420.58L977.148 1420.57C978.438 1419.16 979.018 1417.85 979.118 1416.76C979.213 1415.74 978.903 1414.73 978.016 1413.77C976.916 1412.68 974.97 1411.16 973.846 1410.51C973.303 1410.25 972.684 1409.95 972.206 1409.61C971.604 1409.18 971.021 1408.53 970.836 1407.54C970.685 1406.73 970.859 1405.92 971.039 1405.26C971.231 1404.56 971.535 1403.69 971.897 1402.65C972.39 1401.08 972.891 1399.72 973.566 1398.84C973.942 1398.34 974.491 1397.83 975.274 1397.6C976.066 1397.37 976.795 1397.51 977.354 1397.72L977.364 1397.73C979.468 1398.55 980.739 1398.81 981.445 1398.77C981.66 1398.76 981.758 1398.72 981.789 1398.71C981.798 1398.7 981.811 1398.67 981.828 1398.63C981.875 1398.42 981.906 1398.03 981.855 1397.53C981.803 1397.03 981.686 1396.6 981.57 1396.32C981.345 1395.91 981.172 1395.41 981.035 1394.96C980.87 1394.42 980.713 1393.79 980.571 1393.12C980.289 1391.78 980.047 1390.2 979.901 1388.69C979.561 1385.46 978.545 1382.38 976.532 1378.97L976.522 1378.95L976.512 1378.93C974.855 1375.99 972.833 1371.88 972.179 1369.77C971.523 1367.87 969.557 1365.37 965.474 1361.76L965.471 1361.75C962.112 1358.77 956.145 1353.36 952.24 1349.83L952.232 1349.82L952.222 1349.81C948.387 1346.25 940.446 1339.87 934.687 1335.51C928.899 1331.12 919.486 1323.76 913.712 1319.19L913.685 1319.17C908.002 1314.52 901.715 1309.52 899.72 1308.07C898.146 1306.93 895.636 1304.95 893.379 1303.13L891.25 1301.39C888.785 1299.38 884.187 1295.98 881.169 1293.97C878.001 1291.86 870.948 1286.3 865.363 1281.65L865.357 1281.65L865.351 1281.64C859.863 1276.99 853.419 1271.84 851.081 1270.22C841.805 1263.85 830.454 1254.85 824.121 1248.8L824.114 1248.79L824.108 1248.78C821.06 1245.82 815.23 1240.7 810.384 1236.53L808.378 1234.81C793.929 1222.7 785.148 1214.85 772.922 1203.09L772.916 1203.08C766.782 1197.14 758.891 1189.71 755.287 1186.48C740.905 1173.58 735.954 1168.24 729.301 1158.02L727.946 1155.91C724.942 1151.19 722.398 1147.66 720.354 1145.33C719.329 1144.16 718.479 1143.35 717.803 1142.84C717.719 1142.78 717.64 1142.73 717.568 1142.68C717.342 1143.04 717.083 1143.48 716.808 1143.97L716.441 1144.63L714.688 1147.95L713.406 1150.38L711.518 1148.39L706.305 1142.9C701.761 1138.21 698.503 1135.44 695.981 1134.08C694.745 1133.42 693.782 1133.15 693.005 1133.11C692.261 1133.08 691.572 1133.25 690.845 1133.66C690.424 1133.92 689.93 1134.1 689.507 1134.24C689.008 1134.4 688.436 1134.55 687.839 1134.68C686.644 1134.94 685.248 1135.16 683.936 1135.31L683.897 1135.31C681.431 1135.53 679.32 1135.93 677.76 1136.43C676.979 1136.67 676.383 1136.93 675.965 1137.17C675.52 1137.42 675.417 1137.58 675.429 1137.56L675.426 1137.56C675.114 1138.07 674.67 1138.33 674.473 1138.44C674.192 1138.6 673.893 1138.71 673.631 1138.79C673.099 1138.96 672.45 1139.08 671.762 1139.18C670.369 1139.39 668.573 1139.51 666.685 1139.51C662.935 1139.51 660.575 1139.93 658.259 1141.23C655.844 1142.59 653.312 1144.99 649.451 1149.36H649.45C645.572 1153.77 643.717 1157.07 639.272 1167.62C635.692 1176.38 631.448 1184.49 626.722 1191.68C622.733 1197.8 616.905 1207.09 611.804 1215.4C606.669 1223.76 602.36 1230.99 601.342 1233.07L601.328 1233.1L601.314 1233.12L600.363 1234.9C599.129 1237.2 597.136 1240.89 595.247 1244.32L595.236 1244.34L592.974 1248.35C581.871 1268.09 573.867 1283.43 569.628 1292.86L569.62 1292.88L569.612 1292.9C568.737 1294.74 566.745 1298.34 565.26 1300.94L565.251 1300.96L565.241 1300.97C563.837 1303.33 560.817 1309.04 558.125 1314.32C556.785 1316.95 555.539 1319.45 554.63 1321.33C554.175 1322.28 553.811 1323.05 553.564 1323.61C553.439 1323.89 553.353 1324.1 553.302 1324.23C553.294 1324.25 553.288 1324.27 553.283 1324.28C553.247 1324.47 553.201 1324.61 553.197 1324.61C553.16 1324.72 553.118 1324.83 553.08 1324.92C553.003 1325.1 552.9 1325.32 552.784 1325.56C552.55 1326.04 552.218 1326.69 551.819 1327.45C551.217 1328.59 550.447 1330.01 549.585 1331.56L548.696 1333.14C539.908 1349.09 537.23 1355.1 536.528 1360.2L536.465 1360.69C536.172 1363.87 535.324 1368.85 534.666 1371.95L534.664 1371.96L534.662 1371.97L534.499 1372.72C534.146 1374.38 533.977 1375.48 533.952 1376.27C533.926 1377.1 534.064 1377.42 534.21 1377.65L534.209 1377.65C534.699 1378.37 535.04 1379.29 535.258 1380.1C535.489 1380.95 535.64 1381.89 535.64 1382.71C535.64 1383.72 535.994 1385.23 536.519 1386.52C536.589 1386.69 536.659 1386.85 536.728 1387C536.907 1386.79 537.097 1386.57 537.287 1386.33L537.68 1385.81C538.324 1384.91 539.076 1384.1 539.79 1383.5C540.152 1383.2 540.54 1382.91 540.931 1382.7C541.261 1382.51 541.838 1382.23 542.514 1382.23C544.089 1382.23 545.056 1383.33 545.544 1384.23C546.042 1385.15 546.303 1386.28 546.416 1387.39C546.644 1389.63 546.331 1392.4 545.354 1394.74L545.351 1394.75L545.348 1394.75L545.194 1395.13C545.278 1395.09 545.364 1395.05 545.449 1395.01L545.475 1395L545.501 1394.98C546.883 1394.34 548.125 1393.9 549.402 1393.74C550.713 1393.59 551.919 1393.76 553.211 1394.13L553.229 1394.14L553.247 1394.15C553.973 1394.37 554.69 1394.61 555.266 1394.9C555.857 1395.2 556.593 1395.7 556.977 1396.61C557.334 1397.46 557.227 1398.31 557.085 1398.92C557.204 1398.89 557.321 1398.87 557.437 1398.84C558.247 1398.68 559.135 1398.65 560.004 1398.97C561.805 1399.63 562.545 1401.4 563.01 1402.88L563.022 1402.92L563.032 1402.96C563.215 1403.65 563.347 1404.04 563.463 1404.29C563.5 1404.37 563.528 1404.41 563.545 1404.44C563.589 1404.45 563.685 1404.48 563.863 1404.51C564.215 1404.55 564.717 1404.57 565.505 1404.57C567.302 1404.57 569.608 1403.88 571.533 1402.52L571.573 1402.49L571.614 1402.46C572.693 1401.77 573.827 1401.14 574.823 1400.7C575.318 1400.48 575.824 1400.28 576.3 1400.15C576.655 1400.06 577.247 1399.93 577.871 1400.03C578.398 1400.09 578.803 1400.11 579.109 1400.1C579.149 1400.1 579.186 1400.09 579.221 1400.09C579.314 1399.59 579.526 1399.18 579.681 1398.91C579.918 1398.5 580.224 1398.1 580.542 1397.72C581.183 1396.97 582.019 1396.17 582.877 1395.45C583.738 1394.72 584.676 1394.03 585.542 1393.51C585.974 1393.25 586.42 1393.01 586.854 1392.83C587.247 1392.66 587.804 1392.47 588.403 1392.47C589.889 1392.47 590.678 1393.62 590.987 1394.28C591.278 1394.89 591.428 1395.6 591.473 1396.31C591.792 1396.07 592.175 1395.74 592.629 1395.33C593.645 1394.4 594.904 1393.12 596.446 1391.44L596.455 1391.43L596.465 1391.42C604.064 1383.36 607.695 1378.28 613.866 1367.32C616.692 1362.24 622.671 1352.52 627.051 1345.72L627.054 1345.72C638.13 1328.59 653.659 1304.13 659.041 1295.22L659.046 1295.22C665.036 1285.39 672.096 1275.58 677.063 1270.23C679.159 1267.96 682.825 1263.56 685.095 1260.38L685.103 1260.37L685.111 1260.35C686.296 1258.74 687.464 1257.26 688.38 1256.18C688.835 1255.64 689.247 1255.18 689.577 1254.84C689.738 1254.67 689.911 1254.5 690.079 1254.36C690.16 1254.29 690.282 1254.2 690.43 1254.1C690.478 1254.07 690.919 1253.78 691.537 1253.78C691.919 1253.78 692.204 1253.89 692.277 1253.92C692.392 1253.97 692.483 1254.02 692.534 1254.04C692.639 1254.1 692.729 1254.16 692.785 1254.2C692.906 1254.28 693.038 1254.39 693.164 1254.49C693.425 1254.69 693.77 1254.98 694.181 1255.33C695.008 1256.04 696.159 1257.06 697.543 1258.3C700.313 1260.79 704.048 1264.22 708.06 1268L708.061 1268C724.466 1283.47 734.703 1292.59 740.074 1296.51C742.246 1298.09 747.059 1302.44 750.791 1306.17C754.358 1309.56 759.275 1313.98 762.186 1316.31L762.74 1316.74C765.758 1319.01 773.111 1324.78 779.229 1329.6L779.235 1329.6L779.24 1329.61C785.276 1334.44 794.752 1341.78 800.224 1345.86L800.231 1345.86L800.237 1345.87C805.628 1349.96 815.133 1357.13 821.191 1361.79L821.19 1361.79C824.247 1364.11 827.346 1366.4 829.884 1368.21C832.492 1370.07 834.35 1371.31 835.019 1371.64C836.094 1372.18 838.016 1373.64 840.104 1375.37C842.266 1377.15 844.809 1379.39 847.21 1381.65C858.315 1392.01 861.751 1394.72 871.482 1400.78L871.487 1400.78C881.876 1407.3 887.704 1412.26 894.914 1420.51L894.916 1420.52C898.672 1424.83 901.529 1427.74 903.704 1429.45C904.793 1430.31 905.625 1430.81 906.241 1431.05C906.847 1431.28 907.091 1431.22 907.143 1431.2L907.195 1431.19C907.209 1430.99 907.248 1430.79 907.323 1430.58C907.604 1429.81 908.211 1429.42 908.544 1429.24C909.245 1428.88 910.104 1428.77 910.838 1428.77C912.055 1428.78 913.329 1429.37 914.353 1429.99C915.457 1430.67 916.602 1431.58 917.629 1432.61L917.647 1432.63L917.664 1432.65C919.291 1434.36 922.404 1436.77 924.427 1438C925.587 1438.66 926.794 1439.5 927.817 1440.32C928.785 1441.11 929.751 1442.01 930.307 1442.81L930.309 1442.81C930.53 1443.12 931.037 1443.52 931.969 1443.87C932.873 1444.21 934.019 1444.44 935.28 1444.51ZM722.751 1156.24C721.99 1156.92 720.933 1157.19 719.862 1156.81V1156.81C718.359 1156.31 717.295 1155.05 716.717 1153.83C716.143 1152.62 715.84 1151.01 716.402 1149.52L716.401 1149.52C716.867 1148.24 717.98 1146.62 719.985 1146.8C720.84 1146.89 721.542 1147.31 722.063 1147.77C722.59 1148.24 723.036 1148.84 723.41 1149.51L723.435 1149.55L723.457 1149.6C724.198 1151.08 724.294 1152.83 723.938 1154.19C723.762 1154.86 723.417 1155.66 722.751 1156.24Z" stroke="#5932FF" stroke-width="3.93874"/>
<mask id="path-10-inside-3_239_642" fill="white">
<path d="M963.058 1436.05C961.662 1436.52 961.382 1439.12 962.686 1439.12C964.268 1439.12 966.502 1438 966.502 1437.26C966.502 1436.24 964.454 1435.58 963.058 1436.05Z"/>
</mask>
<path d="M963.058 1436.05L964.303 1439.79C964.99 1439.56 965.365 1439.12 965.526 1438.88C965.682 1438.64 965.749 1438.42 965.772 1438.21C965.79 1438.06 965.83 1437.52 965.467 1436.84C965.266 1436.47 964.921 1436.02 964.372 1435.68C963.808 1435.32 963.207 1435.18 962.686 1435.18V1439.12V1443.06C960.764 1443.06 959.279 1441.97 958.528 1440.57C957.894 1439.39 957.847 1438.17 957.946 1437.31C958.123 1435.77 959.101 1433.22 961.812 1432.31L963.058 1436.05ZM962.686 1439.12V1435.18C962.647 1435.18 962.729 1435.18 962.925 1435.13C963.108 1435.08 963.296 1435.01 963.447 1434.94C963.624 1434.85 963.619 1434.82 963.502 1434.93C963.443 1434.98 963.261 1435.15 963.071 1435.45C962.889 1435.74 962.563 1436.37 962.563 1437.26H966.502H970.441C970.441 1439.25 969.121 1440.47 968.754 1440.8C968.169 1441.32 967.506 1441.72 966.927 1442C965.808 1442.55 964.252 1443.06 962.686 1443.06V1439.12ZM966.502 1437.26H962.563C962.563 1438.42 963.165 1439.17 963.485 1439.46C963.791 1439.75 964.029 1439.82 964.039 1439.83C964.064 1439.84 964.075 1439.84 964.072 1439.84C964.069 1439.84 964.067 1439.84 964.067 1439.84C964.067 1439.84 964.083 1439.84 964.116 1439.83C964.148 1439.83 964.213 1439.82 964.303 1439.79L963.058 1436.05L961.812 1432.31C963.464 1431.76 965.218 1431.91 966.568 1432.37C967.265 1432.6 968.101 1433 968.835 1433.68C969.583 1434.37 970.441 1435.58 970.441 1437.26H966.502Z" fill="#5932FF" mask="url(#path-10-inside-3_239_642)"/>
</svg>
